<svg xmlns="http://www.w3.org/2000/svg" xmlns:xlink="http://www.w3.org/1999/xlink" width="500" zoomAndPan="magnify" viewBox="0 0 375 374.999991" height="500" preserveAspectRatio="xMidYMid meet" version="1.0"><path fill="#000000" d="M 254.8125 171.480469 C 248.457031 171.480469 243.832031 174.042969 240.894531 179.167969 C 237.957031 184.292969 236.5 193.417969 236.5 206.519531 L 236.5 215.667969 C 236.5 228.6875 237.875 237.792969 240.644531 242.957031 C 243.417969 248.125 248.082031 250.707031 254.6875 250.707031 C 261.519531 250.707031 266.6875 247.667969 270.1875 241.5625 L 270.1875 181.25 C 266.792969 174.75 261.667969 171.480469 254.8125 171.480469 Z M 333.332031 0 L 41.667969 0 C 18.667969 0 0 18.644531 0 41.667969 L 0 333.332031 C 0 356.355469 18.667969 375 41.667969 375 L 333.332031 375 C 356.332031 375 375 356.355469 375 333.332031 L 375 41.667969 C 375 18.644531 356.332031 0 333.332031 0 Z M 151.542969 277.082031 L 127.125 214.957031 L 102.855469 277.082031 L 61.207031 277.082031 L 103.9375 187.480469 L 62.0625 99.355469 L 103.207031 99.355469 L 127.125 160.394531 L 151.042969 99.355469 L 192.1875 99.355469 L 150.4375 187.480469 L 193.167969 277.082031 Z M 305 277.082031 L 273.625 277.082031 L 272.042969 263.644531 C 264.957031 274.230469 255.855469 279.519531 244.6875 279.519531 C 230.855469 279.519531 220.292969 274.230469 213 263.644531 C 205.707031 253.0625 202 237.519531 201.832031 217.019531 L 201.832031 207.019531 C 201.832031 185.375 205.5 169.230469 212.8125 158.5625 C 220.125 147.894531 230.792969 142.5625 244.792969 142.5625 C 254.957031 142.5625 263.4375 146.957031 270.1875 155.75 L 270.1875 89.582031 L 304.980469 89.582031 L 304.980469 277.082031 Z M 305 277.082031 " fill-opacity="1" fill-rule="nonzero"/></svg>