<svg xmlns="http://www.w3.org/2000/svg" xmlns:xlink="http://www.w3.org/1999/xlink" width="500" zoomAndPan="magnify" viewBox="0 0 375 374.999991" height="500" preserveAspectRatio="xMidYMid meet" version="1.0"><path fill="#ff41c8" d="M 0 41.667969 C 0 18.65625 18.65625 0 41.667969 0 L 333.332031 0 C 356.34375 0 375 18.65625 375 41.667969 L 375 333.332031 C 375 356.34375 356.34375 375 333.332031 375 L 41.667969 375 C 18.65625 375 0 356.34375 0 333.332031 Z M 0 41.667969 " fill-opacity="1" fill-rule="nonzero"/><path fill="#16020b" d="M 31.25 31.25 L 31.25 343.75 L 343.75 343.75 L 343.75 31.25 Z M 136.386719 163.488281 L 156.324219 112.625 L 190.605469 112.625 L 155.8125 186.074219 L 191.417969 260.738281 L 156.730469 260.738281 L 136.386719 208.957031 L 116.144531 260.738281 L 81.457031 260.738281 L 117.0625 186.074219 L 82.167969 112.625 L 116.449219 112.625 Z M 198.636719 202.355469 C 198.636719 184.3125 201.6875 170.855469 207.792969 161.96875 C 213.894531 153.082031 222.769531 148.644531 234.449219 148.644531 C 242.917969 148.644531 249.980469 152.3125 255.605469 159.636719 L 255.605469 104.5 L 284.59375 104.5 L 284.59375 260.75 L 258.449219 260.75 L 257.125 249.5625 C 251.230469 258.386719 243.625 262.792969 234.332031 262.792969 C 222.8125 262.792969 214.011719 258.386719 207.9375 249.5625 C 201.863281 240.738281 198.761719 227.792969 198.625 210.707031 L 198.625 202.355469 Z M 227.53125 209.574219 C 227.53125 220.425781 228.675781 228.011719 230.988281 232.3125 C 233.300781 236.613281 237.199219 238.769531 242.6875 238.769531 C 248.386719 238.769531 252.6875 236.230469 255.605469 231.144531 L 255.605469 180.894531 C 252.761719 175.46875 248.480469 172.761719 242.792969 172.761719 C 237.5 172.761719 233.636719 174.894531 231.199219 179.167969 C 228.761719 183.4375 227.53125 191.042969 227.53125 201.957031 Z M 227.53125 209.574219 " fill-opacity="1" fill-rule="nonzero"/></svg>