<svg xmlns="http://www.w3.org/2000/svg" xmlns:xlink="http://www.w3.org/1999/xlink" width="500" zoomAndPan="magnify" viewBox="0 0 375 374.999991" height="500" preserveAspectRatio="xMidYMid meet" version="1.0"><defs><clipPath id="id1"><path d="M 10.226562 0 L 364.976562 0 L 364.976562 375 L 10.226562 375 Z M 10.226562 0 " clip-rule="nonzero"/></clipPath><clipPath id="id2"><path d="M 185 0 L 364.976562 0 L 364.976562 375 L 185 375 Z M 185 0 " clip-rule="nonzero"/></clipPath></defs><g clip-path="url(#id1)"><path fill="#e23237" d="M 10.675781 62.160156 L 185.257812 -0.00390625 L 364.527344 61.054688 L 335.511719 291.90625 L 185.257812 375.0625 L 37.359375 293.003906 L 10.675781 62.164062 Z M 10.675781 62.160156 " fill-opacity="1" fill-rule="nonzero"/></g><g clip-path="url(#id2)"><path fill="#b52e31" d="M 364.527344 61.054688 L 185.257812 -0.00390625 L 185.257812 375.050781 L 335.511719 292.023438 L 364.527344 61.058594 L 364.527344 61.050781 Z M 364.527344 61.054688 " fill-opacity="1" fill-rule="nonzero"/></g><path fill="#ffffff" d="M 185.535156 43.789062 L 76.746094 285.679688 L 117.386719 284.984375 L 139.226562 230.429688 L 236.808594 230.429688 L 260.730469 285.679688 L 299.574219 286.371094 L 185.535156 43.789062 L 185.535156 43.792969 Z M 185.8125 121.285156 L 222.570312 198.09375 L 153.464844 198.09375 Z M 185.8125 121.285156 " fill-opacity="1" fill-rule="nonzero"/></svg>