<svg xmlns="http://www.w3.org/2000/svg" xmlns:xlink="http://www.w3.org/1999/xlink" width="500" zoomAndPan="magnify" viewBox="0 0 375 374.999991" height="500" preserveAspectRatio="xMidYMid meet" version="1.0"><defs><clipPath id="id1"><path d="M 24.144531 0 L 355.644531 0 L 355.644531 369.75 L 24.144531 369.75 Z M 24.144531 0 " clip-rule="nonzero"/></clipPath></defs><g clip-path="url(#id1)"><path fill="#000000" d="M 355.601562 0 L 24.191406 0 L 53.433594 330.828125 L 189.894531 369.75 L 326.359375 330.828125 Z M 355.601562 0 " fill-opacity="1" fill-rule="nonzero"/></g><path fill="#3a3a3a" d="M 189.894531 29.191406 L 189.894531 339.585938 L 299.066406 308.449219 L 323.433594 29.191406 Z M 189.894531 29.191406 " fill-opacity="1" fill-rule="nonzero"/><path fill="#ffffff" d="M 278.59375 77.84375 L 189.894531 77.84375 L 189.894531 116.761719 L 237.65625 116.761719 L 234.734375 155.683594 L 189.894531 155.683594 L 189.894531 194.605469 L 232.78125 194.605469 L 229.859375 238.390625 L 189.894531 252.015625 L 189.894531 292.882812 L 266.898438 267.582031 L 273.722656 155.683594 Z M 278.59375 77.84375 " fill-opacity="1" fill-rule="nonzero"/><path fill="#c2bfbf" d="M 189.894531 77.84375 L 189.894531 116.761719 L 103.144531 116.761719 L 100.21875 77.84375 Z M 145.058594 155.683594 L 147.007812 194.605469 L 189.894531 194.605469 L 189.894531 155.683594 Z M 148.957031 214.066406 L 109.964844 214.066406 L 112.890625 267.582031 L 189.894531 292.882812 L 189.894531 252.015625 L 149.929688 238.390625 Z M 148.957031 214.066406 " fill-opacity="1" fill-rule="nonzero"/></svg>