<svg xmlns="http://www.w3.org/2000/svg" xmlns:xlink="http://www.w3.org/1999/xlink" width="500" zoomAndPan="magnify" viewBox="0 0 375 374.999991" height="500" preserveAspectRatio="xMidYMid meet" version="1.0"><path fill="#5382a1" d="M 139.59375 287.542969 C 139.59375 287.542969 125.382812 295.8125 149.707031 298.609375 C 179.175781 301.96875 194.230469 301.484375 226.699219 295.339844 C 226.699219 295.339844 235.238281 300.6875 247.167969 305.328125 C 174.375 336.53125 82.417969 303.519531 139.59375 287.542969 " fill-opacity="1" fill-rule="nonzero"/><path fill="#5382a1" d="M 130.699219 246.835938 C 130.699219 246.835938 114.761719 258.636719 139.101562 261.152344 C 170.574219 264.394531 195.433594 264.664062 238.449219 256.375 C 238.449219 256.375 244.402344 262.414062 253.757812 265.707031 C 165.742188 291.441406 67.710938 267.742188 130.695312 246.835938 " fill-opacity="1" fill-rule="nonzero"/><path fill="#e76f00" d="M 205.683594 177.765625 C 223.621094 198.429688 200.96875 217.011719 200.96875 217.011719 C 200.96875 217.011719 246.523438 193.496094 225.601562 164.050781 C 206.0625 136.59375 191.085938 122.953125 272.191406 75.917969 C 272.191406 75.917969 144.886719 107.707031 205.683594 177.765625 " fill-opacity="1" fill-rule="nonzero"/><path fill="#5382a1" d="M 301.960938 317.65625 C 301.960938 317.65625 312.476562 326.324219 290.386719 333.03125 C 248.363281 345.757812 115.492188 349.601562 78.585938 333.539062 C 65.320312 327.765625 90.203125 319.757812 98.027344 318.066406 C 106.191406 316.300781 110.855469 316.632812 110.855469 316.632812 C 96.101562 306.234375 15.480469 337.035156 69.90625 345.867188 C 218.324219 369.929688 340.460938 335.023438 301.957031 317.65625 " fill-opacity="1" fill-rule="nonzero"/><path fill="#5382a1" d="M 146.425781 204.652344 C 146.425781 204.652344 78.84375 220.703125 122.492188 226.527344 C 140.921875 229.003906 177.671875 228.445312 211.886719 225.570312 C 239.859375 223.210938 267.949219 218.195312 267.949219 218.195312 C 267.949219 218.195312 258.085938 222.425781 250.949219 227.292969 C 182.308594 245.347656 49.730469 236.949219 87.898438 218.484375 C 120.179688 202.886719 146.425781 204.652344 146.425781 204.652344 " fill-opacity="1" fill-rule="nonzero"/><path fill="#5382a1" d="M 267.667969 272.414062 C 337.433594 236.164062 305.167969 201.324219 282.65625 206.019531 C 277.140625 207.171875 274.675781 208.160156 274.675781 208.160156 C 274.675781 208.160156 276.722656 204.953125 280.640625 203.5625 C 325.183594 187.910156 359.441406 249.753906 266.257812 274.246094 C 266.257812 274.246094 267.34375 273.277344 267.667969 272.414062 " fill-opacity="1" fill-rule="nonzero"/><path fill="#e76f00" d="M 225.601562 -0.03125 C 225.601562 -0.03125 264.246094 38.621094 188.953125 98.054688 C 128.585938 145.726562 175.195312 172.910156 188.933594 203.972656 C 153.691406 172.179688 127.832031 144.1875 145.179688 118.140625 C 170.648438 79.902344 241.191406 61.363281 225.601562 -0.03125 " fill-opacity="1" fill-rule="nonzero"/><path fill="#5382a1" d="M 153.28125 370.660156 C 220.25 374.945312 323.082031 368.28125 325.515625 336.59375 C 325.515625 336.59375 320.832031 348.601562 270.175781 358.140625 C 213.015625 368.894531 142.515625 367.644531 100.707031 360.746094 C 100.707031 360.746094 109.265625 367.828125 153.28125 370.660156 " fill-opacity="1" fill-rule="nonzero"/></svg>