<svg xmlns="http://www.w3.org/2000/svg" xmlns:xlink="http://www.w3.org/1999/xlink" width="500" zoomAndPan="magnify" viewBox="0 0 375 374.999991" height="500" preserveAspectRatio="xMidYMid meet" version="1.0"><defs><clipPath id="id1"><path d="M 5 18 L 364.5 18 L 364.5 369 L 5 369 Z M 5 18 " clip-rule="nonzero"/></clipPath></defs><g clip-path="url(#id1)"><path fill="#000000" d="M 336.214844 289.667969 C 316.695312 289.125 301.550781 291.125 288.859375 296.464844 C 285.207031 297.933594 279.339844 297.933594 278.859375 302.53125 C 280.8125 304.460938 281.046875 307.621094 282.761719 310.296875 C 285.6875 315.152344 290.820312 321.691406 295.453125 325.085938 L 311.070312 336.246094 C 320.589844 342.0625 331.328125 345.460938 340.601562 351.285156 C 345.972656 354.683594 351.339844 359.046875 356.714844 362.691406 C 359.449219 364.632812 361.105469 367.789062 364.527344 368.996094 L 364.527344 368.261719 C 362.820312 366.089844 362.328125 362.933594 360.625 360.5 L 353.292969 353.46875 C 346.21875 344.011719 337.429688 335.757812 327.910156 328.972656 C 320.097656 323.632812 303.019531 316.359375 299.84375 307.386719 L 299.363281 306.84375 C 304.726562 306.300781 311.070312 304.414062 316.203125 302.957031 C 324.507812 300.78125 332.066406 301.261719 340.601562 299.082031 L 352.324219 295.683594 L 352.324219 293.507812 C 347.933594 289.140625 344.761719 283.320312 340.125 279.199219 C 327.679688 268.523438 314.003906 258.09375 299.84375 249.359375 C 292.277344 244.511719 282.515625 241.351562 274.460938 237.238281 C 271.523438 235.78125 266.648438 235.050781 264.941406 232.625 C 260.539062 227.296875 258.105469 220.257812 254.929688 213.945312 L 234.917969 171.738281 C 230.527344 162.28125 227.835938 152.820312 222.472656 144.089844 C 197.328125 102.851562 169.988281 77.867188 128.003906 53.363281 C 118.976562 48.269531 108.238281 46.078125 96.820312 43.414062 L 78.515625 42.4375 C 74.605469 40.738281 70.703125 36.128906 67.285156 33.945312 C 53.371094 25.210938 17.492188 6.292969 7.234375 31.226562 C 0.640625 46.992188 16.996094 62.515625 22.550781 70.523438 C 26.707031 76.101562 32.070312 82.40625 35.007812 88.714844 C 36.648438 92.835938 37.195312 97.207031 38.90625 101.570312 C 42.808594 112.246094 46.472656 124.136719 51.601562 134.085938 C 54.335938 139.179688 57.207031 144.523438 60.628906 149.128906 C 62.578125 151.847656 66 153.007812 66.726562 157.375 C 63.308594 162.230469 63.074219 169.5 61.121094 175.574219 C 52.328125 202.984375 55.746094 236.941406 68.191406 257.125 C 72.105469 263.1875 81.324219 276.535156 93.828125 271.433594 C 104.8125 267.066406 102.363281 253.242188 105.535156 241.113281 C 106.273438 238.203125 105.78125 236.261719 107.242188 234.316406 L 107.242188 234.859375 L 117.253906 254.992188 C 124.820312 266.878906 138.003906 279.253906 148.984375 287.503906 C 154.839844 291.871094 159.476562 299.394531 166.796875 302.058594 L 166.796875 301.324219 L 166.316406 301.324219 C 164.851562 299.152344 162.652344 298.171875 160.699219 296.476562 C 156.304688 292.109375 151.425781 286.769531 148.003906 281.921875 C 137.757812 268.339844 128.730469 253.296875 120.671875 237.773438 C 116.761719 230.253906 113.34375 222.007812 110.179688 214.488281 C 108.703125 211.574219 108.703125 207.203125 106.269531 205.757812 C 102.605469 211.085938 97.242188 215.707031 94.546875 222.253906 C 89.90625 232.679688 89.425781 245.539062 87.71875 258.878906 C 86.734375 259.125 87.171875 258.878906 86.734375 259.425781 C 78.933594 257.488281 76.242188 249.476562 73.3125 242.691406 C 65.992188 225.464844 64.769531 197.8125 71.113281 177.921875 C 72.820312 172.828125 80.152344 156.816406 77.226562 151.964844 C 75.75 147.355469 70.878906 144.691406 68.1875 141.046875 C 65.015625 136.4375 61.605469 130.621094 59.40625 125.527344 C 53.554688 111.933594 50.625 96.902344 44.273438 83.316406 C 41.335938 77.007812 36.21875 70.457031 32.066406 64.640625 C 27.425781 58.089844 22.308594 53.476562 18.644531 45.71875 C 17.425781 43 15.71875 38.683594 17.671875 35.769531 C 18.152344 33.828125 19.136719 33.050781 21.078125 32.617188 C 24.253906 29.898438 33.289062 33.34375 36.464844 34.792969 C 45.488281 38.433594 53.054688 41.828125 60.621094 46.914062 C 64.039062 49.339844 67.707031 53.949219 72.097656 55.167969 L 77.230469 55.167969 C 85.042969 56.867188 93.824219 55.710938 101.136719 57.886719 C 114.074219 62.019531 125.789062 68.074219 136.292969 74.632812 C 168.261719 94.765625 194.632812 123.390625 212.445312 157.597656 C 215.371094 163.175781 216.59375 168.269531 219.285156 174.09375 C 224.414062 185.984375 230.761719 198.109375 235.875 209.757812 C 241.007812 221.160156 245.886719 232.8125 253.207031 242.269531 C 256.871094 247.363281 271.511719 250.027344 278.097656 252.699219 C 282.984375 254.875 290.546875 256.832031 294.949219 259.496094 C 303.242188 264.589844 311.542969 270.410156 319.347656 275.988281 C 323.25 278.894531 335.460938 284.960938 336.1875 289.800781 Z M 87.296875 78.875 C 83.910156 78.84375 80.578125 79.246094 77.296875 80.085938 L 77.296875 80.628906 L 77.777344 80.628906 C 79.730469 84.511719 83.148438 87.179688 85.589844 90.578125 L 91.207031 102.222656 L 91.691406 101.679688 C 95.109375 99.257812 96.820312 95.375 96.820312 89.558594 C 95.355469 87.859375 95.113281 86.160156 93.894531 84.460938 C 92.429688 82.039062 89.253906 80.820312 87.296875 78.882812 Z M 87.296875 78.875 " fill-opacity="1" fill-rule="evenodd"/></g></svg>