<svg xmlns="http://www.w3.org/2000/svg" xmlns:xlink="http://www.w3.org/1999/xlink" width="500" zoomAndPan="magnify" viewBox="0 0 375 374.999991" height="500" preserveAspectRatio="xMidYMid meet" version="1.0"><path fill="#8cc84b" d="M 171.921875 4.988281 C 181.277344 -0.304688 193.203125 -0.328125 202.320312 4.988281 L 341.96875 83.644531 C 350.703125 88.550781 356.550781 98.28125 356.46875 108.339844 L 356.46875 266.050781 C 356.527344 276.53125 350.105469 286.472656 340.894531 291.285156 L 201.992188 369.578125 C 200.8125 370.230469 199.589844 370.804688 198.332031 371.292969 C 197.074219 371.785156 195.789062 372.1875 194.476562 372.507812 C 193.164062 372.828125 191.835938 373.058594 190.492188 373.199219 C 189.148438 373.34375 187.800781 373.394531 186.449219 373.355469 C 185.101562 373.320312 183.757812 373.191406 182.425781 372.976562 C 181.089844 372.761719 179.777344 372.457031 178.484375 372.066406 C 177.191406 371.675781 175.929688 371.199219 174.699219 370.640625 C 173.46875 370.082031 172.285156 369.445312 171.140625 368.726562 L 129.457031 344.660156 C 126.617188 342.96875 123.425781 341.625 121.414062 338.878906 C 123.191406 336.496094 126.347656 336.191406 128.917969 335.140625 C 134.71875 333.292969 140.027344 330.46875 145.359375 327.476562 C 146.703125 326.542969 148.351562 326.890625 149.636719 327.734375 L 185.179688 348.269531 C 187.71875 349.730469 190.289062 347.804688 192.464844 346.578125 L 328.851562 269.671875 C 330.535156 268.855469 331.46875 267.078125 331.328125 265.234375 L 331.328125 109.042969 C 331.515625 106.9375 330.3125 105.023438 328.40625 104.171875 L 189.859375 26.214844 C 189.457031 25.9375 189.027344 25.730469 188.5625 25.582031 C 188.101562 25.4375 187.625 25.367188 187.140625 25.363281 C 186.65625 25.363281 186.179688 25.433594 185.71875 25.578125 C 185.253906 25.71875 184.820312 25.929688 184.421875 26.203125 L 46.070312 104.324219 C 44.199219 105.175781 42.914062 107.066406 43.148438 109.171875 L 43.148438 265.363281 C 42.984375 267.207031 43.964844 268.949219 45.660156 269.742188 L 82.632812 290.597656 C 89.578125 294.335938 98.101562 296.4375 105.746094 293.691406 C 106.578125 293.378906 107.382812 293.003906 108.15625 292.570312 C 108.929688 292.132812 109.667969 291.640625 110.367188 291.09375 C 111.066406 290.546875 111.722656 289.953125 112.332031 289.304688 C 112.941406 288.65625 113.496094 287.96875 114.003906 287.238281 C 114.507812 286.507812 114.953125 285.742188 115.339844 284.941406 C 115.730469 284.144531 116.054688 283.320312 116.316406 282.472656 C 116.578125 281.621094 116.777344 280.757812 116.90625 279.882812 C 117.039062 279.003906 117.101562 278.121094 117.097656 277.230469 L 117.132812 121.972656 C 116.96875 119.671875 119.144531 117.769531 121.378906 118.003906 L 139.148438 118.003906 C 141.488281 117.945312 143.324219 120.421875 143.007812 122.734375 L 142.972656 278.972656 C 142.984375 292.851562 137.28125 307.945312 124.429688 314.753906 C 108.597656 322.933594 89.027344 321.214844 73.382812 313.351562 L 33.628906 291.390625 C 24.277344 286.71875 18 276.625 18.058594 266.15625 L 18.058594 108.445312 C 18.066406 107.171875 18.160156 105.902344 18.339844 104.636719 C 18.519531 103.375 18.78125 102.128906 19.125 100.898438 C 19.46875 99.671875 19.894531 98.472656 20.402344 97.300781 C 20.90625 96.128906 21.484375 94.996094 22.140625 93.898438 C 22.796875 92.804688 23.523438 91.757812 24.320312 90.761719 C 25.113281 89.761719 25.972656 88.824219 26.894531 87.9375 C 27.8125 87.054688 28.789062 86.234375 29.820312 85.480469 C 30.847656 84.726562 31.925781 84.046875 33.046875 83.433594 Z M 212.1875 114.3125 C 232.382812 113.140625 254 113.539062 272.167969 123.480469 C 286.234375 131.097656 294.03125 147.078125 294.289062 162.710938 C 293.890625 164.8125 291.695312 165.980469 289.683594 165.828125 C 283.835938 165.816406 277.96875 165.910156 272.097656 165.792969 C 269.609375 165.886719 268.171875 163.597656 267.855469 161.402344 C 266.171875 153.925781 262.089844 146.53125 255.050781 142.921875 C 244.25 137.511719 231.714844 137.78125 219.929688 137.898438 C 211.324219 138.363281 202.074219 139.101562 194.792969 144.148438 C 189.179688 147.980469 187.496094 155.828125 189.496094 161.925781 C 191.367188 166.402344 196.546875 167.839844 200.765625 169.171875 C 225.109375 175.527344 250.890625 175.011719 274.777344 183.269531 C 284.65625 186.683594 294.324219 193.316406 297.714844 203.65625 C 302.136719 217.511719 300.207031 234.078125 290.351562 245.199219 C 282.351562 254.359375 270.707031 259.21875 259.074219 262.042969 C 243.605469 265.492188 227.5625 265.574219 211.863281 264.03125 C 197.09375 262.347656 181.730469 258.46875 170.332031 248.421875 C 160.582031 239.964844 155.835938 226.789062 156.300781 214.078125 C 156.417969 211.925781 158.558594 210.433594 160.628906 210.609375 L 178.164062 210.609375 C 180.527344 210.445312 182.257812 212.476562 182.375 214.695312 C 183.460938 221.707031 186.140625 229.300781 192.359375 233.386719 C 204.355469 241.121094 219.402344 240.585938 233.128906 240.804688 C 244.503906 240.304688 257.273438 240.152344 266.570312 232.628906 C 271.480469 228.339844 272.917969 221.179688 271.597656 215.011719 C 270.15625 209.800781 264.582031 207.382812 259.902344 205.664062 C 235.878906 198.074219 209.804688 200.828125 186.011719 192.230469 C 176.355469 188.820312 167.011719 182.371094 163.304688 172.453125 C 158.125 158.433594 160.5 141.0625 171.40625 130.316406 C 181.929688 119.625 197.363281 115.503906 211.980469 114.03125 Z M 212.1875 114.3125 " fill-opacity="1" fill-rule="nonzero"/></svg>