<svg xmlns="http://www.w3.org/2000/svg" xmlns:xlink="http://www.w3.org/1999/xlink" width="500" zoomAndPan="magnify" viewBox="0 0 375 374.999991" height="500" preserveAspectRatio="xMidYMid meet" version="1.0"><defs><clipPath id="id1"><path d="M 0 2.046875 L 279 2.046875 L 279 281 L 0 281 Z M 0 2.046875 " clip-rule="nonzero"/></clipPath><clipPath id="id2"><path d="M 186.207031 2.003906 C 91.046875 2.003906 96.988281 43.25 96.988281 43.25 L 97.09375 85.976562 L 187.894531 85.976562 L 187.894531 98.804688 L 61.027344 98.804688 C 61.027344 98.804688 0.136719 91.902344 0.136719 187.863281 C 0.136719 283.832031 53.285156 280.429688 53.285156 280.429688 L 85 280.429688 L 85 235.890625 C 85 235.890625 83.292969 182.773438 137.300781 182.773438 L 227.363281 182.773438 C 227.363281 182.773438 277.957031 183.59375 277.957031 133.898438 L 277.957031 51.730469 C 277.957031 51.730469 285.648438 2.003906 186.207031 2.003906 Z M 136.132812 30.738281 C 145.167969 30.738281 152.464844 38.035156 152.464844 47.066406 C 152.464844 56.097656 145.167969 63.394531 136.132812 63.394531 C 127.097656 63.394531 119.796875 56.097656 119.796875 47.066406 C 119.796875 38.035156 127.097656 30.738281 136.132812 30.738281 Z M 136.132812 30.738281 " clip-rule="nonzero"/></clipPath><linearGradient x1="0.00416839" gradientTransform="matrix(277.956533, 0, 0, 278.437613, 0.137436, 2.0054)" y1="-0.00405727" x2="1.027757" gradientUnits="userSpaceOnUse" y2="1.01158" id="id3"><stop stop-opacity="1" stop-color="rgb(0%, 0%, 0%)" offset="0"/><stop stop-opacity="1" stop-color="rgb(0.0152588%, 0%, 0.00762939%)" offset="0.125"/><stop stop-opacity="1" stop-color="rgb(0.134277%, 0.0106812%, 0.0671387%)" offset="0.140625"/><stop stop-opacity="1" stop-color="rgb(0.340271%, 0.0305176%, 0.169373%)" offset="0.15625"/><stop stop-opacity="1" stop-color="rgb(0.546265%, 0.050354%, 0.273132%)" offset="0.171875"/><stop stop-opacity="1" stop-color="rgb(0.753784%, 0.0686646%, 0.376892%)" offset="0.1875"/><stop stop-opacity="1" stop-color="rgb(0.959778%, 0.088501%, 0.479126%)" offset="0.203125"/><stop stop-opacity="1" stop-color="rgb(1.165771%, 0.106812%, 0.582886%)" offset="0.21875"/><stop stop-opacity="1" stop-color="rgb(1.371765%, 0.126648%, 0.68512%)" offset="0.234375"/><stop stop-opacity="1" stop-color="rgb(1.577759%, 0.146484%, 0.788879%)" offset="0.25"/><stop stop-opacity="1" stop-color="rgb(1.785278%, 0.164795%, 0.892639%)" offset="0.265625"/><stop stop-opacity="1" stop-color="rgb(1.991272%, 0.184631%, 0.994873%)" offset="0.28125"/><stop stop-opacity="1" stop-color="rgb(2.197266%, 0.202942%, 1.098633%)" offset="0.296875"/><stop stop-opacity="1" stop-color="rgb(2.403259%, 0.222778%, 1.200867%)" offset="0.3125"/><stop stop-opacity="1" stop-color="rgb(2.609253%, 0.241089%, 1.304626%)" offset="0.328125"/><stop stop-opacity="1" stop-color="rgb(2.815247%, 0.260925%, 1.40686%)" offset="0.34375"/><stop stop-opacity="1" stop-color="rgb(3.022766%, 0.280762%, 1.51062%)" offset="0.359375"/><stop stop-opacity="1" stop-color="rgb(3.22876%, 0.299072%, 1.61438%)" offset="0.375"/><stop stop-opacity="1" stop-color="rgb(3.434753%, 0.318909%, 1.716614%)" offset="0.390625"/><stop stop-opacity="1" stop-color="rgb(3.640747%, 0.337219%, 1.820374%)" offset="0.40625"/><stop stop-opacity="1" stop-color="rgb(3.846741%, 0.357056%, 1.922607%)" offset="0.421875"/><stop stop-opacity="1" stop-color="rgb(4.05426%, 0.375366%, 2.026367%)" offset="0.4375"/><stop stop-opacity="1" stop-color="rgb(4.260254%, 0.395203%, 2.130127%)" offset="0.453125"/><stop stop-opacity="1" stop-color="rgb(4.466248%, 0.415039%, 2.232361%)" offset="0.46875"/><stop stop-opacity="1" stop-color="rgb(4.672241%, 0.43335%, 2.336121%)" offset="0.484375"/><stop stop-opacity="1" stop-color="rgb(4.878235%, 0.453186%, 2.438354%)" offset="0.494335"/><stop stop-opacity="1" stop-color="rgb(4.981995%, 0.462341%, 2.490234%)" offset="0.5"/><stop stop-opacity="1" stop-color="rgb(5.084229%, 0.471497%, 2.542114%)" offset="0.505665"/><stop stop-opacity="1" stop-color="rgb(5.187988%, 0.482178%, 2.593994%)" offset="0.515625"/><stop stop-opacity="1" stop-color="rgb(5.291748%, 0.491333%, 2.645874%)" offset="0.53125"/><stop stop-opacity="1" stop-color="rgb(5.497742%, 0.509644%, 2.748108%)" offset="0.546875"/><stop stop-opacity="1" stop-color="rgb(5.703735%, 0.52948%, 2.851868%)" offset="0.5625"/><stop stop-opacity="1" stop-color="rgb(5.909729%, 0.549316%, 2.954102%)" offset="0.578125"/><stop stop-opacity="1" stop-color="rgb(6.115723%, 0.567627%, 3.057861%)" offset="0.59375"/><stop stop-opacity="1" stop-color="rgb(6.323242%, 0.587463%, 3.161621%)" offset="0.609375"/><stop stop-opacity="1" stop-color="rgb(6.529236%, 0.605774%, 3.263855%)" offset="0.625"/><stop stop-opacity="1" stop-color="rgb(6.735229%, 0.62561%, 3.367615%)" offset="0.640625"/><stop stop-opacity="1" stop-color="rgb(6.941223%, 0.643921%, 3.469849%)" offset="0.65625"/><stop stop-opacity="1" stop-color="rgb(7.147217%, 0.663757%, 3.573608%)" offset="0.671875"/><stop stop-opacity="1" stop-color="rgb(7.354736%, 0.683594%, 3.677368%)" offset="0.6875"/><stop stop-opacity="1" stop-color="rgb(7.56073%, 0.701904%, 3.779602%)" offset="0.703125"/><stop stop-opacity="1" stop-color="rgb(7.766724%, 0.721741%, 3.883362%)" offset="0.71875"/><stop stop-opacity="1" stop-color="rgb(7.972717%, 0.740051%, 3.985596%)" offset="0.734375"/><stop stop-opacity="1" stop-color="rgb(8.178711%, 0.759888%, 4.089355%)" offset="0.75"/><stop stop-opacity="1" stop-color="rgb(8.441162%, 0.784302%, 4.220581%)" offset="1"/></linearGradient><clipPath id="id4"><path d="M 97 96 L 375 96 L 375 374.796875 L 97 374.796875 Z M 97 96 " clip-rule="nonzero"/></clipPath><clipPath id="id5"><path d="M 188.910156 374.695312 C 284.0625 374.695312 278.117188 333.441406 278.117188 333.441406 L 278.015625 290.710938 L 187.207031 290.710938 L 187.207031 277.890625 L 314.078125 277.890625 C 314.078125 277.890625 374.972656 284.785156 374.972656 188.832031 C 374.972656 92.867188 321.828125 96.269531 321.828125 96.269531 L 290.109375 96.269531 L 290.109375 140.796875 C 290.109375 140.796875 291.8125 193.921875 237.8125 193.921875 L 147.738281 193.921875 C 147.738281 193.921875 97.144531 193.101562 97.144531 242.800781 L 97.144531 324.964844 C 97.144531 324.964844 89.460938 374.695312 188.910156 374.695312 Z M 238.972656 345.957031 C 229.945312 345.957031 222.636719 338.652344 222.636719 329.628906 C 222.636719 320.59375 229.945312 313.300781 238.972656 313.300781 C 248.015625 313.300781 255.308594 320.59375 255.308594 329.628906 C 255.308594 338.652344 248.015625 345.957031 238.972656 345.957031 Z M 238.972656 345.957031 " clip-rule="nonzero"/></clipPath><linearGradient x1="-0.0326454" gradientTransform="matrix(277.964963, 0, 0, 278.439023, 97.007685, 96.254368)" y1="-0.00636595" x2="1.013978" gradientUnits="userSpaceOnUse" y2="0.985247" id="id6"><stop stop-opacity="1" stop-color="rgb(93.299866%, 93.299866%, 93.299866%)" offset="0"/><stop stop-opacity="1" stop-color="rgb(93.270874%, 93.270874%, 93.270874%)" offset="0.25"/><stop stop-opacity="1" stop-color="rgb(93.141174%, 93.141174%, 93.141174%)" offset="0.375"/><stop stop-opacity="1" stop-color="rgb(92.939758%, 92.939758%, 92.939758%)" offset="0.482837"/><stop stop-opacity="1" stop-color="rgb(92.83905%, 92.83905%, 92.83905%)" offset="0.5"/><stop stop-opacity="1" stop-color="rgb(92.738342%, 92.738342%, 92.738342%)" offset="0.517163"/><stop stop-opacity="1" stop-color="rgb(92.63916%, 92.63916%, 92.63916%)" offset="0.625"/><stop stop-opacity="1" stop-color="rgb(92.538452%, 92.538452%, 92.538452%)" offset="0.75"/><stop stop-opacity="1" stop-color="rgb(92.318726%, 92.318726%, 92.318726%)" offset="1"/></linearGradient></defs><g clip-path="url(#id1)"><g clip-path="url(#id2)"><path fill="url(#id3)" d="M 0.136719 2.046875 L 0.136719 283.832031 L 285.648438 283.832031 L 285.648438 2.046875 Z M 0.136719 2.046875 " fill-rule="nonzero"/></g></g><g clip-path="url(#id4)"><g clip-path="url(#id5)"><path fill="url(#id6)" d="M 89.460938 92.867188 L 89.460938 374.695312 L 374.972656 374.695312 L 374.972656 92.867188 Z M 89.460938 92.867188 " fill-rule="nonzero"/></g></g></svg>