<svg xmlns="http://www.w3.org/2000/svg" xmlns:xlink="http://www.w3.org/1999/xlink" width="500" zoomAndPan="magnify" viewBox="0 0 375 374.999991" height="500" preserveAspectRatio="xMidYMid meet" version="1.0"><defs><clipPath id="id1"><path d="M 6.328125 97 L 10 97 L 10 114 L 6.328125 114 Z M 6.328125 97 " clip-rule="nonzero"/></clipPath><clipPath id="id2"><path d="M 365 226 L 368.578125 226 L 368.578125 236 L 365 236 Z M 365 226 " clip-rule="nonzero"/></clipPath></defs><path fill="#ff9f1c" d="M 178.144531 2.652344 C 164.527344 12.320312 150.550781 21.53125 137.246094 31.601562 C 135.726562 35.03125 140.726562 36.152344 142.542969 38.082031 C 154.804688 46.460938 166.949219 55.078125 179.707031 62.683594 C 183.332031 62.757812 185.839844 58.980469 188.9375 57.421875 C 200.261719 49.132812 211.921875 41.214844 222.84375 32.429688 C 224.03125 28.941406 219.113281 28.035156 217.1875 26.15625 C 204.730469 18.257812 192.398438 9.953125 179.746094 2.503906 C 179.183594 2.257812 178.648438 2.308594 178.144531 2.652344 Z M 178.144531 2.652344 " fill-opacity="1" fill-rule="nonzero"/><path fill="#ff9f1c" d="M 135.449219 33.714844 C 129.433594 35.726562 124.636719 40.441406 119.253906 43.707031 C 108.722656 51.265625 97.660156 58.207031 87.757812 66.578125 C 86.457031 70.039062 91.535156 71.105469 93.441406 73.078125 C 105.804688 81.460938 117.933594 90.25 130.632812 98.105469 C 134.449219 97.832031 137.070312 94.039062 140.375 92.359375 C 152.8125 83.507812 165.34375 74.746094 177.550781 65.570312 C 179.828125 62.484375 174.980469 60.820312 173.199219 59.121094 C 161.078125 50.484375 148.523438 42.386719 136.40625 33.820312 C 136.089844 33.730469 135.765625 33.699219 135.4375 33.722656 Z M 135.449219 33.714844 " fill-opacity="1" fill-rule="nonzero"/><path fill="#ff9f1c" d="M 84.058594 68.246094 C 70.265625 78.101562 55.914062 87.246094 42.660156 97.824219 C 40.574219 101.121094 45.898438 102.453125 47.648438 104.230469 C 60.605469 112.945312 73.25 122.175781 86.570312 130.292969 C 90.523438 129.585938 93.289062 125.863281 96.75 123.949219 C 107.578125 116.125 118.492188 108.390625 129.179688 100.371094 C 131.195312 96.640625 125.140625 95.480469 123.144531 93.339844 C 110.636719 85.007812 98.359375 76.105469 85.699219 68.109375 C 85.433594 67.984375 85.152344 67.9375 84.863281 67.960938 C 84.570312 67.984375 84.300781 68.078125 84.058594 68.246094 Z M 84.058594 68.246094 " fill-opacity="1" fill-rule="nonzero"/><path fill="#ff9f1c" d="M 131.664062 100.007812 C 125.109375 102.65625 119.777344 107.722656 113.863281 111.542969 C 105.871094 117.5 97.441406 122.984375 89.804688 129.351562 C 88.414062 133.105469 93.523438 134.828125 95.667969 136.886719 C 110.253906 146.921875 124.722656 157.183594 139.804688 166.453125 C 143.449219 166.5625 145.976562 162.789062 149.089844 161.207031 C 160.085938 153.214844 171.464844 145.652344 182.09375 137.199219 C 183.636719 133.523438 178.589844 131.726562 176.46875 129.734375 C 161.945312 119.710938 147.445312 109.578125 132.609375 100.058594 C 132.304688 99.976562 131.996094 99.957031 131.683594 100 Z M 131.664062 100.007812 " fill-opacity="1" fill-rule="nonzero"/><path fill="#ff9f1c" d="M 179.628906 64.6875 C 171.96875 69.007812 165.132812 74.839844 157.867188 79.832031 C 149.820312 85.910156 141.34375 91.519531 133.71875 98.097656 C 132.699219 101.597656 137.84375 102.515625 139.683594 104.574219 C 154.488281 114.589844 168.984375 125.105469 184.175781 134.503906 C 188.019531 134.320312 190.765625 130.574219 194.082031 128.898438 C 206.753906 119.78125 219.78125 111.054688 231.789062 101.089844 C 233.273438 97.699219 228.089844 96.671875 226.316406 94.769531 C 211.199219 84.757812 196.535156 73.957031 180.828125 64.878906 C 180.445312 64.71875 180.042969 64.660156 179.628906 64.710938 Z M 179.628906 64.6875 " fill-opacity="1" fill-rule="nonzero"/><path fill="#ff9f1c" d="M 223.632812 31.984375 C 210.128906 42.496094 195.773438 52.070312 182.265625 62.488281 C 180.773438 66.027344 186.523438 67.046875 188.453125 69.152344 C 203.566406 79.121094 218.230469 89.878906 233.875 99.007812 C 237.359375 99.078125 239.804688 95.425781 242.820312 93.960938 C 254.722656 85.433594 266.835938 77.148438 278.445312 68.234375 C 279.910156 64.5625 274.511719 63.679688 272.542969 61.660156 C 256.894531 51.730469 241.585938 41.175781 225.394531 32.15625 C 224.828125 31.886719 224.238281 31.828125 223.632812 31.984375 Z M 223.632812 31.984375 " fill-opacity="1" fill-rule="nonzero"/><path fill="#ff9f1c" d="M 278.976562 67.511719 C 267.28125 77.09375 254.527344 85.363281 242.347656 94.351562 C 240.410156 96.464844 234.277344 98.007812 236.546875 101.546875 C 249.4375 110.042969 261.863281 119.332031 275.078125 127.320312 C 278.511719 129.015625 281.210938 124.710938 284.128906 123.507812 C 297.269531 114.613281 310.714844 105.972656 323.527344 96.726562 C 325.152344 93.148438 319.210938 92.183594 317.234375 90.136719 C 305.082031 82.523438 293.144531 74.359375 280.839844 67.144531 C 280.113281 66.804688 279.578125 67.15625 278.976562 67.511719 Z M 278.976562 67.511719 " fill-opacity="1" fill-rule="nonzero"/><path fill="#ff9f1c" d="M 233.691406 100.925781 C 218.089844 111.519531 202.816406 122.691406 187.730469 134.007812 C 185.621094 137.5 191.09375 138.832031 192.972656 140.792969 C 203.386719 147.789062 213.460938 155.375 224.332031 161.644531 C 228.308594 163.355469 231.199219 158.558594 234.472656 157.191406 C 247.316406 148.21875 260.804688 140.09375 273.105469 130.386719 C 275.785156 128.085938 272.464844 125.578125 270.382812 124.542969 C 258.742188 116.609375 247.148438 108.59375 235.289062 100.992188 C 234.773438 100.992188 234.222656 100.832031 233.71875 100.921875 Z M 233.691406 100.925781 " fill-opacity="1" fill-rule="nonzero"/><path fill="#ff9f1c" d="M 184.527344 136.472656 C 170.234375 145.671875 156.726562 156.097656 142.8125 165.867188 C 140.28125 169.375 146.257812 170.753906 148.1875 172.710938 C 158.542969 179.582031 168.667969 187 179.175781 193.527344 C 182.707031 193.367188 185.394531 189.691406 188.574219 188.144531 C 200.070312 180.078125 212.152344 172.765625 223.386719 164.34375 C 224.699219 160.796875 219.589844 159.773438 217.707031 157.742188 C 207.105469 150.570312 196.683594 143.054688 185.722656 136.453125 L 184.527344 136.453125 Z M 184.527344 136.472656 " fill-opacity="1" fill-rule="nonzero"/><path fill="#2ec4b6" d="M 321.332031 98.664062 C 306.835938 108.738281 291.71875 118.082031 277.613281 128.628906 C 275.144531 135.015625 277.324219 142.316406 276.917969 149.007812 C 277.601562 157.460938 276.707031 166.308594 278.460938 174.5 C 283.238281 175.144531 286.835938 169.511719 291.105469 167.625 C 302.128906 160.609375 312.363281 152.140625 323.84375 145.960938 C 327.851562 143.816406 325.488281 137.898438 326.082031 134.238281 C 325.488281 122.640625 325.9375 110.75 323.976562 99.375 C 323.816406 98.363281 322.027344 98.164062 321.332031 98.664062 Z M 321.332031 98.664062 " fill-opacity="1" fill-rule="nonzero"/><path fill="#2ec4b6" d="M 273.050781 131.53125 C 257.714844 141.65625 242.117188 151.742188 227.371094 162.539062 C 226.464844 175.613281 227.023438 189.191406 227.21875 202.457031 C 227 205.015625 227.460938 210.710938 231.289062 208.222656 C 246.308594 197.824219 262.03125 188.300781 276.304688 176.890625 C 279.695312 173.089844 276.484375 167.496094 277.210938 162.96875 C 276.453125 152.71875 277.28125 142.148438 275.488281 132.085938 C 274.652344 131.691406 274.046875 130.953125 273.050781 131.53125 Z M 273.050781 131.53125 " fill-opacity="1" fill-rule="nonzero"/><path fill="#2ec4b6" d="M 223.71875 164.632812 C 209.601562 174.25 194.996094 183.457031 181.355469 193.5625 C 180.902344 204.039062 182.28125 214.921875 182.085938 225.59375 C 182.871094 229.835938 180.613281 235.664062 183.992188 238.980469 C 188.347656 239.464844 191.480469 234.609375 195.253906 232.917969 C 205.433594 225.757812 216.179688 219.132812 225.898438 211.53125 C 227 196.683594 226.332031 181.335938 226.757812 166.296875 C 226.5625 164.847656 225.054688 163.855469 223.71875 164.632812 Z M 223.71875 164.632812 " fill-opacity="1" fill-rule="nonzero"/><path fill="#2ec4b6" d="M 223.664062 213.90625 C 210.058594 223.414062 195.792969 232.28125 182.59375 242.179688 C 181.667969 255.402344 182.285156 269.121094 182.378906 282.539062 C 182.902344 285.132812 181.25 291.792969 185.824219 290.753906 C 199.335938 281.949219 213.242188 273.410156 226.230469 264.023438 C 227.265625 250.226562 226.40625 235.894531 226.71875 221.890625 C 226.234375 219.425781 228.378906 212.445312 223.664062 213.90625 Z M 223.664062 213.90625 " fill-opacity="1" fill-rule="nonzero"/><path fill="#2ec4b6" d="M 274.65625 179.132812 C 259 190.027344 242.683594 200.28125 227.433594 211.566406 C 226.429688 226.210938 227.257812 241.367188 226.953125 256.210938 C 225.101562 263.761719 232.074219 262.003906 235.527344 258.113281 C 249.917969 248.355469 264.960938 239.246094 278.945312 229.085938 C 279.722656 216.664062 278.730469 203.738281 278.398438 191.132812 C 277.566406 187.226562 279.324219 181.59375 276.183594 179.015625 C 275.644531 178.5625 275.15625 178.945312 274.640625 179.136719 Z M 274.65625 179.132812 " fill-opacity="1" fill-rule="nonzero"/><path fill="#2ec4b6" d="M 322.984375 146.617188 C 308.117188 155.992188 293.804688 166.234375 279.214844 176.03125 C 277.269531 182 278.984375 188.917969 278.78125 195.257812 C 279.304688 205.132812 279.460938 215.082031 280.503906 224.925781 C 283.417969 228.570312 287.308594 222.851562 290.355469 221.859375 C 298.769531 216.53125 306.988281 210.894531 315.402344 205.566406 C 303.972656 213.777344 291.617188 220.929688 280.402344 229.347656 C 280.003906 239.078125 281.375 249.285156 281.582031 259.203125 C 281.890625 261.875 281.347656 268.582031 285.839844 267.023438 C 300.054688 257.097656 315.121094 248.261719 328.664062 237.433594 C 331.796875 233.671875 328.804688 228.285156 329.507812 223.898438 C 328.078125 198.667969 328.386719 173.292969 325.917969 148.160156 C 325.636719 146.875 324.226562 146.03125 322.988281 146.617188 Z M 322.984375 146.617188 " fill-opacity="1" fill-rule="nonzero"/><path fill="#2ec4b6" d="M 277.820312 231.996094 C 267.132812 236.597656 257.851562 244.167969 247.933594 250.242188 C 241.113281 255.277344 233.019531 259.058594 226.972656 264.863281 C 227.339844 277.355469 226.113281 290.03125 227.714844 302.425781 C 230.414062 306.542969 234.609375 300.265625 237.511719 299.316406 C 252.082031 289.367188 267.289062 280.035156 281.4375 269.667969 C 281.832031 260.28125 280.460938 250.519531 280.632812 240.929688 C 280.03125 238.28125 281.585938 232.582031 277.820312 231.996094 Z M 277.820312 231.996094 " fill-opacity="1" fill-rule="nonzero"/><path fill="#2ec4b6" d="M 224.296875 266.710938 C 210.039062 274.453125 196.84375 284.296875 183.074219 292.949219 C 181.007812 298.792969 182.765625 305.738281 182.179688 312.007812 C 182.621094 318.816406 181.296875 325.976562 183.105469 332.589844 C 186.425781 335.898438 190.148438 329.917969 193.257812 328.90625 C 204.269531 321.335938 215.867188 314.316406 226.441406 306.304688 C 227.269531 293.964844 226.683594 281.125 226.390625 268.59375 C 226.21875 267.667969 225.308594 266.613281 224.292969 266.710938 Z M 224.296875 266.710938 " fill-opacity="1" fill-rule="nonzero"/><path fill="#ffffff" d="M 39.773438 101.308594 C 37.863281 107.167969 39.226562 113.886719 38.640625 120.058594 C 38.726562 129.566406 37.972656 139.253906 38.640625 148.652344 C 49.683594 157.417969 62.175781 164.984375 73.804688 173.246094 C 77.5625 175.347656 80.722656 178.984375 84.941406 179.945312 C 88.210938 176.886719 85.707031 171.238281 86.5625 167.164062 C 86.410156 155.210938 87.03125 143.078125 86.253906 131.242188 C 75.238281 122.601562 62.878906 115.054688 51.238281 106.976562 C 47.539062 105.480469 43.953125 100.128906 39.757812 101.308594 Z M 39.773438 101.308594 " fill-opacity="1" fill-rule="nonzero"/><path fill="#ffffff" d="M 87.484375 134.148438 C 87.015625 149.296875 86.410156 164.65625 87.441406 179.8125 C 89.933594 186.0625 97.292969 188.507812 102.125 192.65625 C 112.941406 199.824219 123.453125 207.773438 134.511719 214.402344 C 138.875 213.273438 136.25 206.351562 137.328125 202.703125 C 137.734375 190.609375 138.433594 178.332031 137.839844 166.34375 C 126.859375 157.648438 114.398438 150.214844 102.835938 142.007812 C 98.058594 139.265625 93.941406 134.929688 88.753906 133.191406 L 88.101562 133.699219 Z M 87.484375 134.148438 " fill-opacity="1" fill-rule="nonzero"/><path fill="#ffffff" d="M 138.894531 169.066406 C 138.296875 184.582031 137.390625 200.28125 138.175781 215.835938 C 139.765625 220.175781 145.523438 221.332031 148.679688 224.453125 C 158.480469 230.804688 167.628906 238.539062 178.152344 243.582031 C 182.804688 242.714844 180.839844 236.175781 181.546875 232.84375 C 181.582031 220.570312 182.226562 208.128906 181.585938 195.972656 C 170.503906 187.234375 157.941406 179.753906 146.296875 171.492188 C 144.039062 170.527344 141.328125 166.449219 138.894531 169.050781 Z M 138.894531 169.066406 " fill-opacity="1" fill-rule="nonzero"/><path fill="#ffffff" d="M 138.070312 220.132812 C 137.261719 234.828125 136.972656 249.667969 136.945312 264.417969 C 144.105469 271.164062 153.273438 275.972656 161.238281 281.9375 C 167.328125 285.597656 172.898438 290.84375 179.402344 293.445312 C 183.125 292.554688 181.066406 287.054688 181.792969 284.1875 C 181.691406 271.558594 182.746094 258.75 181.175781 246.21875 C 178.96875 243.679688 174.917969 243.054688 172.269531 240.6875 C 161.324219 233.917969 151.0625 225.824219 140.082031 219.3125 C 139.207031 218.679688 138.746094 219.851562 138.082031 220.121094 Z M 138.070312 220.132812 " fill-opacity="1" fill-rule="nonzero"/><path fill="#ffffff" d="M 90.460938 185.703125 C 86.210938 187.316406 88.539062 193.484375 87.738281 196.960938 C 87.847656 208.449219 87.292969 220.125 88.070312 231.492188 C 99.53125 240.46875 112.4375 248.214844 124.464844 256.71875 C 128.019531 257.96875 132.945312 265.488281 135.949219 260.929688 C 136.78125 246.410156 137.546875 231.675781 136.875 217.230469 C 125.902344 208.554688 113.484375 201.085938 101.929688 192.90625 C 98.085938 190.660156 94.628906 187.226562 90.484375 185.703125 Z M 90.460938 185.703125 " fill-opacity="1" fill-rule="nonzero"/><path fill="#ffffff" d="M 38.535156 152.164062 C 37.257812 166.894531 38.300781 181.90625 37.996094 196.730469 C 41.9375 201.847656 48.84375 204.46875 53.921875 208.628906 C 63.933594 215.355469 73.773438 222.359375 84.007812 228.730469 C 88.792969 229.097656 86.578125 222.394531 87.269531 219.523438 C 87.078125 207.105469 88.027344 194.339844 85.753906 182.175781 C 71.382812 171.464844 56.09375 161.503906 41.121094 151.449219 C 40.039062 151.257812 39.265625 151.230469 38.535156 152.164062 Z M 38.535156 152.164062 " fill-opacity="1" fill-rule="nonzero"/><path fill="#ffffff" d="M 38.902344 200.886719 C 37.144531 208.214844 38.34375 216.226562 37.753906 223.792969 C 38.230469 229.707031 36.382812 236.296875 38.371094 241.785156 C 53.886719 251.601562 69.070312 262.265625 84.789062 271.558594 C 89.359375 269.90625 86.046875 262.300781 87.148438 258.191406 C 86.871094 249.492188 88.125 240.492188 86.675781 231.964844 C 71.980469 220.804688 56.636719 210.347656 41.074219 200.441406 C 40.296875 199.976562 39.625 200.75 38.917969 200.898438 Z M 38.902344 200.886719 " fill-opacity="1" fill-rule="nonzero"/><path fill="#ffffff" d="M 88.59375 234.691406 C 86.625 240.242188 88.21875 246.699219 87.789062 252.5625 C 88.328125 259.828125 87.238281 267.480469 88.859375 274.5 C 103.214844 283.867188 117.402344 293.480469 131.964844 302.519531 C 136.550781 303.121094 135.359375 296.535156 135.945312 293.65625 C 136.339844 284.289062 136.722656 274.730469 136.019531 265.476562 C 124.605469 256.496094 111.8125 248.65625 99.789062 240.222656 C 96.175781 238.703125 92.664062 233.476562 88.59375 234.691406 Z M 88.59375 234.691406 " fill-opacity="1" fill-rule="nonzero"/><path fill="#ffffff" d="M 138.015625 267.769531 C 135.238281 271.367188 137.414062 276.828125 136.578125 281.109375 C 136.851562 289.300781 135.585938 297.804688 136.945312 305.792969 C 151.078125 314.8125 164.957031 324.585938 179.324219 333.035156 C 183.898438 331.386719 180.585938 323.78125 181.695312 319.671875 C 181.613281 311.859375 182.3125 303.933594 181.246094 296.183594 C 170.414062 288.03125 158.648438 280.722656 147.445312 272.859375 C 144.3125 271.324219 141.652344 267.652344 138.015625 267.769531 Z M 138.015625 267.769531 " fill-opacity="1" fill-rule="nonzero"/><path fill="#000000" d="M 40.78125 97.648438 L 180.589844 192.792969 L 178.785156 192.792969 L 324.777344 94.175781 L 324.777344 96.894531 L 178.324219 3.261719 L 180.140625 3.261719 L 40.78125 100.367188 L 40.78125 97.648438 M 38.972656 100.367188 C 38.855469 100.292969 38.753906 100.210938 38.660156 100.109375 C 38.566406 100.011719 38.484375 99.902344 38.417969 99.785156 C 38.351562 99.664062 38.304688 99.539062 38.269531 99.410156 C 38.234375 99.277344 38.21875 99.144531 38.21875 99.007812 C 38.21875 98.871094 38.234375 98.738281 38.269531 98.605469 C 38.304688 98.472656 38.351562 98.347656 38.417969 98.230469 C 38.484375 98.113281 38.566406 98.003906 38.660156 97.902344 C 38.753906 97.804688 38.855469 97.71875 38.972656 97.648438 L 178.324219 0.542969 C 178.585938 0.316406 178.886719 0.203125 179.234375 0.203125 C 179.578125 0.203125 179.878906 0.316406 180.140625 0.542969 L 326.589844 94.175781 C 326.707031 94.25 326.8125 94.335938 326.90625 94.433594 C 327 94.53125 327.078125 94.640625 327.144531 94.757812 C 327.210938 94.878906 327.261719 95.003906 327.292969 95.136719 C 327.328125 95.265625 327.34375 95.402344 327.34375 95.535156 C 327.34375 95.671875 327.328125 95.804688 327.292969 95.9375 C 327.261719 96.070312 327.210938 96.195312 327.144531 96.3125 C 327.078125 96.433594 327 96.542969 326.90625 96.640625 C 326.8125 96.738281 326.707031 96.824219 326.589844 96.894531 L 180.589844 195.507812 C 180.308594 195.65625 180.003906 195.734375 179.683594 195.734375 C 179.363281 195.734375 179.0625 195.65625 178.78125 195.507812 Z M 38.972656 100.367188 " fill-opacity="1" fill-rule="nonzero"/><path fill="#000000" d="M 40.328125 100.820312 L 38.972656 241.269531 L 38.214844 239.910156 L 183.910156 334.601562 L 182.101562 334.601562 L 329.3125 236.132812 L 328.554688 237.496094 L 323.121094 97.949219 C 323.121094 97.046875 323.738281 96.289062 324.628906 96.289062 C 325.519531 96.289062 326.292969 96.90625 326.292969 97.800781 L 331.726562 237.34375 C 331.730469 237.9375 331.476562 238.390625 330.972656 238.703125 L 183.761719 337.167969 C 183.476562 337.320312 183.175781 337.394531 182.855469 337.394531 C 182.535156 337.394531 182.234375 337.320312 181.949219 337.167969 L 36.253906 242.476562 C 35.785156 242.144531 35.535156 241.695312 35.5 241.121094 L 36.855469 100.667969 C 36.859375 100.449219 36.902344 100.238281 36.988281 100.035156 C 37.074219 99.832031 37.191406 99.65625 37.347656 99.5 C 37.503906 99.34375 37.683594 99.222656 37.886719 99.140625 C 38.089844 99.054688 38.300781 99.011719 38.519531 99.007812 C 38.753906 99.023438 38.976562 99.082031 39.191406 99.179688 C 39.40625 99.277344 39.597656 99.410156 39.761719 99.574219 C 39.929688 99.742188 40.0625 99.933594 40.160156 100.144531 C 40.257812 100.359375 40.3125 100.585938 40.328125 100.820312 Z M 40.328125 100.820312 " fill-opacity="1" fill-rule="nonzero"/><path fill="#000000" d="M 86.226562 271.472656 L 84.871094 131.332031 C 84.867188 130.738281 85.117188 130.285156 85.621094 129.96875 L 221.660156 31.804688 C 221.832031 31.675781 222.023438 31.585938 222.226562 31.535156 C 222.433594 31.480469 222.644531 31.46875 222.855469 31.496094 C 223.066406 31.527344 223.265625 31.59375 223.449219 31.699219 C 223.636719 31.808594 223.792969 31.945312 223.925781 32.113281 C 224.378906 32.730469 224.234375 33.925781 223.617188 34.378906 L 87.585938 132.539062 L 88.34375 131.183594 L 89.699219 271.328125 C 89.699219 271.546875 89.65625 271.761719 89.570312 271.960938 C 89.484375 272.164062 89.367188 272.34375 89.210938 272.5 C 89.054688 272.65625 88.875 272.773438 88.675781 272.859375 C 88.472656 272.945312 88.261719 272.988281 88.042969 272.992188 C 87.132812 272.992188 86.226562 272.375 86.226562 271.480469 Z M 86.226562 271.472656 " fill-opacity="1" fill-rule="nonzero"/><path fill="#000000" d="M 134.242188 302.28125 L 136.503906 169.082031 C 136.539062 168.507812 136.792969 168.054688 137.261719 167.722656 L 277.21875 67.292969 C 277.394531 67.160156 277.589844 67.070312 277.804688 67.019531 C 278.023438 66.972656 278.238281 66.96875 278.453125 67.011719 C 278.671875 67.054688 278.867188 67.140625 279.046875 67.269531 C 279.226562 67.398438 279.371094 67.558594 279.484375 67.75 C 279.9375 68.503906 279.792969 69.558594 279.03125 70.011719 L 139.222656 170.441406 L 139.980469 169.082031 L 137.710938 302.28125 C 137.710938 302.5 137.667969 302.710938 137.582031 302.914062 C 137.496094 303.117188 137.378906 303.296875 137.222656 303.453125 C 137.066406 303.609375 136.886719 303.726562 136.683594 303.8125 C 136.484375 303.898438 136.273438 303.941406 136.050781 303.945312 C 135.144531 303.945312 134.242188 303.1875 134.242188 302.28125 Z M 134.242188 302.28125 " fill-opacity="1" fill-rule="nonzero"/><path fill="#000000" d="M 183.3125 197.019531 L 183.460938 335.660156 C 183.453125 335.871094 183.402344 336.078125 183.316406 336.273438 C 183.226562 336.46875 183.105469 336.640625 182.949219 336.789062 C 182.796875 336.9375 182.617188 337.050781 182.421875 337.128906 C 182.222656 337.210938 182.015625 337.25 181.800781 337.25 C 181.585938 337.25 181.378906 337.210938 181.179688 337.128906 C 180.980469 337.050781 180.804688 336.9375 180.652344 336.789062 C 180.496094 336.640625 180.375 336.46875 180.285156 336.273438 C 180.199219 336.078125 180.148438 335.871094 180.140625 335.660156 L 179.988281 197.019531 C 179.996094 196.808594 180.046875 196.601562 180.136719 196.40625 C 180.222656 196.210938 180.34375 196.039062 180.5 195.890625 C 180.652344 195.742188 180.832031 195.628906 181.03125 195.550781 C 181.230469 195.46875 181.433594 195.429688 181.648438 195.429688 C 181.863281 195.429688 182.070312 195.46875 182.269531 195.550781 C 182.46875 195.628906 182.644531 195.742188 182.800781 195.890625 C 182.953125 196.039062 183.074219 196.210938 183.164062 196.40625 C 183.253906 196.601562 183.300781 196.808594 183.3125 197.019531 Z M 183.3125 197.019531 " fill-opacity="1" fill-rule="nonzero"/><path fill="#000000" d="M 228.90625 305.300781 C 228.917969 305.527344 228.882812 305.746094 228.800781 305.960938 C 228.722656 306.171875 228.601562 306.359375 228.445312 306.523438 C 228.289062 306.6875 228.105469 306.8125 227.898438 306.902344 C 227.691406 306.992188 227.472656 307.035156 227.246094 307.035156 C 227.019531 307.035156 226.800781 306.992188 226.59375 306.902344 C 226.382812 306.8125 226.203125 306.6875 226.042969 306.523438 C 225.886719 306.359375 225.769531 306.171875 225.691406 305.960938 C 225.609375 305.746094 225.574219 305.527344 225.585938 305.300781 L 224.96875 163.796875 L 225.722656 165.15625 L 85.941406 70.011719 C 85.1875 69.558594 85.035156 68.503906 85.488281 67.75 C 85.945312 66.992188 87 66.839844 87.753906 67.292969 L 227.546875 162.4375 C 228.054688 162.75 228.304688 163.203125 228.300781 163.796875 L 228.917969 305.300781 L 225.585938 305.300781 C 225.59375 305.085938 225.640625 304.882812 225.730469 304.6875 C 225.820312 304.492188 225.941406 304.320312 226.09375 304.171875 C 226.25 304.023438 226.425781 303.910156 226.625 303.832031 C 226.824219 303.75 227.03125 303.710938 227.246094 303.710938 C 227.460938 303.710938 227.667969 303.75 227.863281 303.832031 C 228.0625 303.910156 228.242188 304.023438 228.394531 304.171875 C 228.550781 304.320312 228.671875 304.492188 228.761719 304.6875 C 228.847656 304.882812 228.898438 305.085938 228.90625 305.300781 Z M 228.90625 305.300781 " fill-opacity="1" fill-rule="nonzero"/><path fill="#000000" d="M 279.9375 266.1875 L 274.351562 128.308594 L 275.105469 129.664062 L 136.503906 36.035156 C 135.75 35.582031 135.597656 34.523438 136.050781 33.769531 C 136.503906 33.015625 137.558594 32.863281 138.316406 33.316406 L 276.917969 126.945312 C 277.425781 127.257812 277.675781 127.710938 277.671875 128.308594 L 283.257812 266.1875 C 283.257812 267.097656 282.640625 267.847656 281.746094 267.847656 C 280.691406 267.699219 279.9375 267.097656 279.9375 266.1875 Z M 279.9375 266.1875 " fill-opacity="1" fill-rule="nonzero"/><path fill="#000000" d="M 38.367188 147.183594 L 178.929688 243.386719 L 177.121094 243.386719 L 322.664062 144.3125 C 323.421875 143.859375 324.476562 144.003906 324.929688 144.769531 C 325.378906 145.53125 325.238281 146.578125 324.476562 147.03125 L 178.929688 246.105469 C 178.3125 246.558594 177.574219 246.558594 177.121094 246.105469 L 36.554688 149.902344 C 35.800781 149.449219 35.648438 148.394531 36.101562 147.636719 C 36.558594 146.882812 37.613281 146.730469 38.367188 147.183594 Z M 38.367188 147.183594 " fill-opacity="1" fill-rule="nonzero"/><path fill="#000000" d="M 40.328125 197.324219 L 180.890625 293.523438 L 179.09375 293.523438 L 322.980469 198.679688 C 323.734375 198.230469 324.789062 198.371094 325.242188 199.136719 C 325.695312 199.898438 325.550781 200.949219 324.789062 201.398438 L 180.890625 296.238281 C 180.609375 296.390625 180.308594 296.464844 179.988281 296.464844 C 179.667969 296.464844 179.363281 296.390625 179.082031 296.238281 L 38.519531 200.042969 C 37.761719 199.589844 37.613281 198.53125 38.066406 197.777344 C 38.519531 197.023438 39.574219 196.871094 40.328125 197.324219 Z M 40.328125 197.324219 " fill-opacity="1" fill-rule="nonzero"/><path fill="#000000" d="M 21.003906 136.460938 C 20.398438 116.214844 20.238281 101.726562 20.097656 92.816406 C 20.097656 90.097656 20.25 88.4375 20.851562 87.378906 L 20.703125 87.53125 C 21.472656 85.570312 23.570312 83.453125 27.042969 81.039062 L 26.589844 81.492188 L 27.042969 81.039062 C 27.949219 80.285156 35.5 75.300781 49.691406 66.390625 C 49.859375 66.246094 50.050781 66.140625 50.265625 66.078125 C 50.480469 66.015625 50.695312 66.003906 50.917969 66.035156 C 51.136719 66.066406 51.339844 66.140625 51.527344 66.261719 C 51.714844 66.382812 51.871094 66.535156 51.992188 66.722656 C 52.113281 66.910156 52.1875 67.113281 52.222656 67.335938 C 52.253906 67.554688 52.238281 67.773438 52.179688 67.984375 C 52.117188 68.199219 52.015625 68.390625 51.871094 68.5625 C 51.726562 68.730469 51.550781 68.863281 51.351562 68.957031 C 37.308594 77.71875 29.914062 82.550781 29.003906 83.304688 L 29.3125 82.996094 L 28.859375 83.445312 C 25.839844 85.5625 24.179688 87.222656 23.578125 88.582031 C 23.578125 88.6875 23.527344 88.738281 23.425781 88.734375 C 23.117188 89.183594 23.117188 90.394531 23.117188 92.507812 C 23.117188 101.417969 23.425781 115.917969 24.023438 136.152344 C 24.035156 136.359375 24.007812 136.554688 23.933594 136.746094 C 23.863281 136.9375 23.753906 137.105469 23.609375 137.25 C 23.464844 137.394531 23.296875 137.503906 23.105469 137.574219 C 22.914062 137.648438 22.714844 137.675781 22.511719 137.664062 C 21.609375 137.664062 21.003906 137.355469 21.003906 136.457031 Z M 21.003906 136.460938 " fill-opacity="1" fill-rule="nonzero"/><g clip-path="url(#id1)"><path fill="#000000" d="M 6.359375 112.144531 L 6.359375 99.460938 C 6.359375 99.261719 6.398438 99.070312 6.472656 98.886719 C 6.550781 98.699219 6.660156 98.539062 6.800781 98.394531 C 6.941406 98.253906 7.105469 98.144531 7.289062 98.066406 C 7.476562 97.992188 7.667969 97.953125 7.867188 97.949219 C 8.0625 97.964844 8.25 98.011719 8.429688 98.09375 C 8.609375 98.175781 8.765625 98.285156 8.90625 98.421875 C 9.046875 98.5625 9.15625 98.722656 9.238281 98.898438 C 9.316406 99.078125 9.367188 99.265625 9.378906 99.460938 L 9.378906 112.136719 C 9.390625 112.339844 9.359375 112.539062 9.289062 112.730469 C 9.214844 112.921875 9.109375 113.089844 8.964844 113.234375 C 8.820312 113.378906 8.652344 113.484375 8.460938 113.558594 C 8.269531 113.632812 8.070312 113.660156 7.867188 113.648438 C 7.664062 113.660156 7.46875 113.628906 7.277344 113.558594 C 7.089844 113.484375 6.921875 113.378906 6.777344 113.234375 C 6.632812 113.089844 6.523438 112.925781 6.453125 112.734375 C 6.378906 112.546875 6.347656 112.347656 6.359375 112.144531 Z M 6.359375 112.144531 " fill-opacity="1" fill-rule="nonzero"/></g><path fill="#000000" d="M 341.539062 162.890625 C 341.539062 163.507812 341.691406 164.398438 341.691406 165.761719 C 342.59375 176.179688 343.199219 181.765625 343.199219 182.222656 L 343.199219 182.070312 C 343.507812 185.394531 343.816406 189.78125 344.257812 195.363281 C 344.875 204.121094 345.460938 214.539062 346.066406 226.773438 C 346.066406 227.675781 345.449219 228.28125 344.558594 228.433594 C 343.667969 228.585938 343.046875 227.816406 342.894531 226.925781 C 342.292969 214.691406 341.6875 204.269531 341.085938 195.660156 C 340.632812 190.074219 340.328125 185.542969 340.027344 182.371094 L 340.027344 181.929688 L 340.027344 182.238281 C 340.027344 181.785156 339.574219 176.347656 338.519531 165.929688 C 338.410156 164.925781 338.359375 163.917969 338.367188 162.910156 C 338.367188 162.710938 338.40625 162.515625 338.484375 162.332031 C 338.558594 162.148438 338.667969 161.984375 338.808594 161.839844 C 338.949219 161.699219 339.113281 161.589844 339.300781 161.515625 C 339.484375 161.4375 339.675781 161.398438 339.875 161.398438 C 340.78125 161.398438 341.539062 162.015625 341.539062 162.910156 Z M 341.539062 162.890625 " fill-opacity="1" fill-rule="nonzero"/><path fill="#000000" d="M 358 191.28125 L 358 192.640625 C 358 195.210938 358.148438 196.566406 358.148438 196.871094 C 358.148438 200.191406 358.300781 203.0625 358.300781 205.628906 L 358.300781 219.070312 C 358.300781 219.269531 358.261719 219.460938 358.183594 219.648438 C 358.109375 219.832031 358 219.996094 357.855469 220.136719 C 357.714844 220.277344 357.550781 220.386719 357.367188 220.464844 C 357.183594 220.542969 356.988281 220.582031 356.789062 220.582031 C 356.59375 220.566406 356.40625 220.519531 356.226562 220.4375 C 356.050781 220.355469 355.890625 220.246094 355.75 220.109375 C 355.613281 219.96875 355.503906 219.808594 355.421875 219.632812 C 355.339844 219.453125 355.292969 219.265625 355.28125 219.070312 L 355.28125 205.78125 C 355.28125 203.214844 355.28125 200.34375 355.128906 197.171875 C 355.128906 196.863281 355.128906 195.507812 354.976562 192.941406 L 354.976562 191.585938 C 354.964844 191.382812 354.996094 191.183594 355.070312 190.992188 C 355.140625 190.800781 355.25 190.632812 355.394531 190.488281 C 355.539062 190.347656 355.703125 190.238281 355.894531 190.164062 C 356.085938 190.089844 356.28125 190.0625 356.488281 190.074219 C 357.382812 190.074219 358 190.527344 358 191.28125 Z M 358 191.28125 " fill-opacity="1" fill-rule="nonzero"/><g clip-path="url(#id2)"><path fill="#000000" d="M 368.261719 227.980469 L 368.261719 230.546875 L 368.570312 234.019531 C 368.574219 234.21875 368.546875 234.410156 368.480469 234.59375 C 368.417969 234.78125 368.324219 234.953125 368.199219 235.105469 C 368.074219 235.257812 367.925781 235.382812 367.757812 235.480469 C 367.585938 235.582031 367.40625 235.648438 367.210938 235.679688 C 366.457031 235.832031 365.699219 235.0625 365.550781 234.324219 L 365.242188 230.847656 L 365.242188 227.980469 C 365.242188 227.78125 365.28125 227.585938 365.355469 227.402344 C 365.433594 227.21875 365.542969 227.054688 365.683594 226.914062 C 365.824219 226.769531 365.988281 226.664062 366.175781 226.585938 C 366.359375 226.507812 366.550781 226.472656 366.753906 226.472656 C 366.949219 226.484375 367.136719 226.53125 367.3125 226.613281 C 367.492188 226.691406 367.652344 226.804688 367.789062 226.941406 C 367.929688 227.082031 368.039062 227.238281 368.121094 227.417969 C 368.199219 227.597656 368.246094 227.785156 368.261719 227.980469 Z M 368.261719 227.980469 " fill-opacity="1" fill-rule="nonzero"/></g><path fill="#000000" d="M 122.464844 323.878906 C 125.183594 325.539062 140.882812 337.167969 169.570312 358.914062 C 169.730469 359.035156 169.859375 359.183594 169.964844 359.355469 C 170.066406 359.527344 170.132812 359.710938 170.160156 359.910156 C 170.1875 360.109375 170.179688 360.304688 170.128906 360.5 C 170.078125 360.695312 169.996094 360.871094 169.875 361.03125 C 169.753906 361.191406 169.609375 361.324219 169.433594 361.425781 C 169.261719 361.527344 169.078125 361.59375 168.878906 361.621094 C 168.679688 361.648438 168.484375 361.636719 168.289062 361.589844 C 168.09375 361.539062 167.917969 361.453125 167.757812 361.332031 C 139.070312 339.734375 123.367188 328.105469 120.800781 326.445312 C 120.628906 326.339844 120.480469 326.203125 120.363281 326.035156 C 120.242188 325.871094 120.164062 325.6875 120.121094 325.488281 C 120.078125 325.285156 120.074219 325.085938 120.117188 324.886719 C 120.15625 324.683594 120.234375 324.5 120.347656 324.332031 C 120.457031 324.160156 120.59375 324.015625 120.761719 323.898438 C 120.929688 323.78125 121.113281 323.703125 121.3125 323.660156 C 121.511719 323.617188 121.710938 323.613281 121.910156 323.652344 C 122.109375 323.691406 122.296875 323.765625 122.464844 323.878906 Z M 122.464844 323.878906 " fill-opacity="1" fill-rule="nonzero"/><path fill="#000000" d="M 185.570312 359.519531 C 196.140625 350.15625 212.144531 339.285156 233.734375 326.597656 C 233.914062 326.496094 234.105469 326.433594 234.3125 326.410156 C 234.515625 326.386719 234.71875 326.40625 234.914062 326.460938 C 235.113281 326.519531 235.292969 326.609375 235.453125 326.738281 C 235.617188 326.867188 235.746094 327.019531 235.847656 327.199219 C 235.945312 327.382812 236.007812 327.574219 236.03125 327.777344 C 236.054688 327.984375 236.039062 328.183594 235.984375 328.382812 C 235.925781 328.582031 235.835938 328.761719 235.707031 328.921875 C 235.578125 329.082031 235.425781 329.214844 235.246094 329.316406 C 213.804688 341.851562 197.949219 352.722656 187.535156 361.9375 C 187.386719 362.070312 187.21875 362.171875 187.027344 362.238281 C 186.839844 362.304688 186.644531 362.332031 186.445312 362.316406 C 186.246094 362.300781 186.054688 362.25 185.878906 362.15625 C 185.699219 362.066406 185.546875 361.941406 185.421875 361.785156 C 185.179688 361.4375 185.074219 361.050781 185.101562 360.625 C 185.128906 360.203125 185.285156 359.835938 185.570312 359.519531 Z M 185.570312 359.519531 " fill-opacity="1" fill-rule="nonzero"/><path fill="#000000" d="M 126.539062 346.230469 C 131.523438 349.703125 139.070312 355.59375 149.1875 363.746094 C 149.804688 364.363281 149.941406 365.257812 149.496094 365.859375 C 149.367188 366.011719 149.21875 366.132812 149.046875 366.226562 C 148.875 366.320312 148.691406 366.382812 148.496094 366.410156 C 148.300781 366.441406 148.109375 366.433594 147.917969 366.390625 C 147.726562 366.351562 147.546875 366.277344 147.382812 366.167969 C 137.265625 358.167969 129.714844 352.285156 124.886719 348.800781 C 124.707031 348.699219 124.558594 348.558594 124.441406 348.386719 C 124.328125 348.214844 124.253906 348.023438 124.222656 347.820312 C 124.195312 347.613281 124.210938 347.410156 124.273438 347.214844 C 124.332031 347.015625 124.4375 346.839844 124.578125 346.6875 C 125.195312 346.070312 125.933594 345.628906 126.539062 346.234375 Z M 126.539062 346.230469 " fill-opacity="1" fill-rule="nonzero"/><path fill="#000000" d="M 134.539062 368.429688 C 135.449219 369.335938 136.957031 370.542969 138.769531 372.054688 C 139.386719 372.671875 139.523438 373.566406 138.921875 374.167969 C 138.316406 374.769531 137.410156 374.921875 136.808594 374.316406 C 134.992188 372.808594 133.484375 371.601562 132.578125 370.695312 C 131.960938 370.078125 131.824219 369.183594 132.429688 368.578125 C 133.03125 367.972656 133.9375 367.828125 134.539062 368.429688 Z M 134.539062 368.429688 " fill-opacity="1" fill-rule="nonzero"/><path fill="#2ec4b6" d="M 271.402344 133.304688 C 257.28125 143.488281 241.378906 152.082031 228.375 163.28125 C 228.992188 177.84375 227.214844 192.984375 229.183594 207.222656 C 245.132812 199.421875 261.261719 187.101562 275.683594 176.171875 C 276.207031 161.976562 278.503906 146.660156 273.183594 133.257812 Z M 271.402344 133.304688 " fill-opacity="1" fill-rule="nonzero"/></svg>