<svg xmlns="http://www.w3.org/2000/svg" xmlns:xlink="http://www.w3.org/1999/xlink" width="500" zoomAndPan="magnify" viewBox="0 0 375 374.999991" height="500" preserveAspectRatio="xMidYMid meet" version="1.0"><defs><g/><clipPath id="id1"><path d="M 54 147.027344 L 74 147.027344 L 74 161 L 54 161 Z M 54 147.027344 " clip-rule="nonzero"/></clipPath><clipPath id="id2"><path d="M 33 147.027344 L 96 147.027344 L 96 190 L 33 190 Z M 33 147.027344 " clip-rule="nonzero"/></clipPath><clipPath id="id3"><path d="M 26.835938 168 L 28 168 L 28 172 L 26.835938 172 Z M 26.835938 168 " clip-rule="nonzero"/></clipPath><clipPath id="id4"><path d="M 104 195 L 104.835938 195 L 104.835938 198 L 104 198 Z M 104 195 " clip-rule="nonzero"/></clipPath></defs><g clip-path="url(#id1)"><path fill="#ff9f1c" d="M 63.832031 147.601562 C 60.898438 149.6875 57.890625 151.679688 55.023438 153.855469 C 54.699219 154.59375 55.773438 154.835938 56.164062 155.253906 C 58.804688 157.0625 61.421875 158.925781 64.167969 160.566406 C 64.949219 160.582031 65.488281 159.765625 66.15625 159.429688 C 68.59375 157.640625 71.105469 155.929688 73.457031 154.03125 C 73.710938 153.277344 72.652344 153.082031 72.238281 152.675781 C 69.554688 150.96875 66.898438 149.175781 64.175781 147.566406 C 64.054688 147.515625 63.941406 147.527344 63.832031 147.601562 Z M 63.832031 147.601562 " fill-opacity="1" fill-rule="nonzero"/></g><path fill="#ff9f1c" d="M 54.636719 154.308594 C 53.34375 154.742188 52.308594 155.761719 51.152344 156.46875 C 48.882812 158.101562 46.5 159.601562 44.367188 161.410156 C 44.089844 162.15625 45.183594 162.386719 45.59375 162.8125 C 48.253906 164.621094 50.867188 166.523438 53.601562 168.21875 C 54.421875 168.160156 54.988281 167.339844 55.699219 166.976562 C 58.378906 165.066406 61.074219 163.171875 63.703125 161.191406 C 64.195312 160.523438 63.148438 160.164062 62.765625 159.796875 C 60.15625 157.933594 57.453125 156.183594 54.84375 154.332031 C 54.777344 154.3125 54.707031 154.304688 54.636719 154.3125 Z M 54.636719 154.308594 " fill-opacity="1" fill-rule="nonzero"/><path fill="#ff9f1c" d="M 43.574219 161.769531 C 40.601562 163.898438 37.511719 165.871094 34.660156 168.15625 C 34.210938 168.871094 35.355469 169.15625 35.734375 169.542969 C 38.523438 171.425781 41.246094 173.417969 44.113281 175.171875 C 44.964844 175.019531 45.558594 174.214844 46.304688 173.800781 C 48.636719 172.109375 50.988281 170.441406 53.289062 168.707031 C 53.722656 167.902344 52.417969 167.652344 51.988281 167.1875 C 49.296875 165.390625 46.652344 163.464844 43.925781 161.738281 C 43.800781 161.683594 43.683594 161.691406 43.574219 161.769531 Z M 43.574219 161.769531 " fill-opacity="1" fill-rule="nonzero"/><path fill="#ff9f1c" d="M 53.824219 168.628906 C 52.410156 169.203125 51.265625 170.296875 49.992188 171.121094 C 48.269531 172.40625 46.453125 173.59375 44.808594 174.96875 C 44.511719 175.777344 45.609375 176.152344 46.070312 176.59375 C 49.210938 178.761719 52.328125 180.980469 55.574219 182.980469 C 56.359375 183.003906 56.90625 182.191406 57.574219 181.847656 C 59.941406 180.121094 62.394531 178.488281 64.683594 176.664062 C 65.015625 175.867188 63.925781 175.480469 63.46875 175.050781 C 60.34375 172.886719 57.222656 170.695312 54.027344 168.640625 C 53.960938 168.621094 53.894531 168.617188 53.828125 168.628906 Z M 53.824219 168.628906 " fill-opacity="1" fill-rule="nonzero"/><path fill="#ff9f1c" d="M 64.152344 161 C 62.5 161.933594 61.03125 163.191406 59.464844 164.269531 C 57.734375 165.582031 55.90625 166.796875 54.265625 168.214844 C 54.046875 168.972656 55.152344 169.171875 55.550781 169.617188 C 58.738281 171.777344 61.859375 174.050781 65.128906 176.082031 C 65.957031 176.042969 66.550781 175.230469 67.261719 174.871094 C 69.992188 172.902344 72.796875 171.015625 75.382812 168.863281 C 75.703125 168.128906 74.585938 167.910156 74.203125 167.496094 C 70.949219 165.335938 67.789062 163.003906 64.410156 161.042969 C 64.328125 161.007812 64.242188 160.996094 64.152344 161.003906 Z M 64.152344 161 " fill-opacity="1" fill-rule="nonzero"/><path fill="#ff9f1c" d="M 73.625 153.9375 C 70.71875 156.207031 67.625 158.273438 64.71875 160.523438 C 64.398438 161.289062 65.636719 161.511719 66.050781 161.964844 C 69.304688 164.117188 72.460938 166.441406 75.832031 168.414062 C 76.582031 168.429688 77.109375 167.640625 77.757812 167.324219 C 80.320312 165.480469 82.929688 163.691406 85.429688 161.765625 C 85.742188 160.972656 84.582031 160.78125 84.15625 160.347656 C 80.789062 158.199219 77.492188 155.921875 74.003906 153.972656 C 73.882812 153.914062 73.757812 153.902344 73.625 153.9375 Z M 73.625 153.9375 " fill-opacity="1" fill-rule="nonzero"/><path fill="#ff9f1c" d="M 85.542969 161.609375 C 83.023438 163.679688 80.277344 165.464844 77.65625 167.40625 C 77.238281 167.863281 75.917969 168.199219 76.40625 168.960938 C 79.183594 170.796875 81.855469 172.804688 84.703125 174.527344 C 85.441406 174.894531 86.023438 173.964844 86.652344 173.707031 C 89.480469 171.785156 92.375 169.917969 95.136719 167.921875 C 95.484375 167.148438 94.207031 166.9375 93.78125 166.496094 C 91.164062 164.851562 88.59375 163.089844 85.941406 161.53125 C 85.789062 161.457031 85.671875 161.53125 85.542969 161.609375 Z M 85.542969 161.609375 " fill-opacity="1" fill-rule="nonzero"/><path fill="#ff9f1c" d="M 75.792969 168.828125 C 72.433594 171.117188 69.144531 173.527344 65.894531 175.972656 C 65.441406 176.726562 66.621094 177.015625 67.023438 177.4375 C 69.265625 178.949219 71.4375 180.589844 73.777344 181.941406 C 74.632812 182.3125 75.253906 181.277344 75.960938 180.980469 C 78.726562 179.042969 81.628906 177.289062 84.277344 175.191406 C 84.855469 174.695312 84.140625 174.152344 83.691406 173.929688 C 81.1875 172.214844 78.6875 170.484375 76.136719 168.84375 C 76.023438 168.84375 75.90625 168.808594 75.796875 168.828125 Z M 75.792969 168.828125 " fill-opacity="1" fill-rule="nonzero"/><path fill="#ff9f1c" d="M 65.207031 176.507812 C 62.128906 178.492188 59.21875 180.746094 56.222656 182.855469 C 55.679688 183.613281 56.964844 183.910156 57.378906 184.332031 C 59.609375 185.816406 61.789062 187.421875 64.054688 188.828125 C 64.8125 188.796875 65.390625 188 66.078125 187.667969 C 68.550781 185.925781 71.152344 184.34375 73.574219 182.527344 C 73.855469 181.761719 72.753906 181.539062 72.351562 181.101562 C 70.066406 179.550781 67.824219 177.929688 65.464844 176.5 L 65.207031 176.5 Z M 65.207031 176.507812 " fill-opacity="1" fill-rule="nonzero"/><path fill="#2ec4b6" d="M 94.664062 168.339844 C 91.539062 170.515625 88.285156 172.535156 85.25 174.8125 C 84.71875 176.191406 85.1875 177.769531 85.097656 179.214844 C 85.246094 181.039062 85.054688 182.949219 85.429688 184.71875 C 86.460938 184.859375 87.234375 183.640625 88.15625 183.234375 C 90.527344 181.71875 92.730469 179.890625 95.203125 178.554688 C 96.066406 178.09375 95.558594 176.8125 95.683594 176.023438 C 95.558594 173.519531 95.652344 170.949219 95.230469 168.492188 C 95.195312 168.273438 94.8125 168.230469 94.664062 168.339844 Z M 94.664062 168.339844 " fill-opacity="1" fill-rule="nonzero"/><path fill="#2ec4b6" d="M 84.265625 175.4375 C 80.964844 177.625 77.605469 179.804688 74.429688 182.136719 C 74.234375 184.960938 74.355469 187.894531 74.398438 190.757812 C 74.351562 191.3125 74.449219 192.542969 75.273438 192.003906 C 78.507812 189.757812 81.894531 187.699219 84.96875 185.234375 C 85.699219 184.414062 85.003906 183.207031 85.164062 182.230469 C 85 180.015625 85.175781 177.730469 84.792969 175.558594 C 84.613281 175.472656 84.480469 175.3125 84.265625 175.4375 Z M 84.265625 175.4375 " fill-opacity="1" fill-rule="nonzero"/><path fill="#2ec4b6" d="M 73.644531 182.589844 C 70.605469 184.664062 67.460938 186.652344 64.523438 188.835938 C 64.425781 191.101562 64.722656 193.453125 64.679688 195.757812 C 64.847656 196.671875 64.363281 197.929688 65.089844 198.648438 C 66.027344 198.753906 66.703125 197.703125 67.515625 197.339844 C 69.707031 195.792969 72.019531 194.359375 74.113281 192.71875 C 74.351562 189.511719 74.207031 186.195312 74.296875 182.949219 C 74.257812 182.636719 73.933594 182.421875 73.644531 182.589844 Z M 73.644531 182.589844 " fill-opacity="1" fill-rule="nonzero"/><path fill="#2ec4b6" d="M 73.632812 193.230469 C 70.703125 195.285156 67.632812 197.199219 64.789062 199.339844 C 64.589844 202.195312 64.722656 205.160156 64.742188 208.054688 C 64.855469 208.617188 64.5 210.054688 65.484375 209.832031 C 68.394531 207.929688 71.390625 206.085938 74.183594 204.058594 C 74.40625 201.078125 74.222656 197.980469 74.289062 194.957031 C 74.1875 194.421875 74.648438 192.917969 73.632812 193.230469 Z M 73.632812 193.230469 " fill-opacity="1" fill-rule="nonzero"/><path fill="#2ec4b6" d="M 84.613281 185.71875 C 81.242188 188.074219 77.726562 190.289062 74.445312 192.726562 C 74.226562 195.890625 74.40625 199.164062 74.339844 202.371094 C 73.941406 204 75.445312 203.621094 76.1875 202.78125 C 79.285156 200.671875 82.523438 198.703125 85.535156 196.511719 C 85.703125 193.828125 85.488281 191.035156 85.417969 188.3125 C 85.238281 187.46875 85.617188 186.253906 84.941406 185.695312 C 84.824219 185.597656 84.71875 185.679688 84.609375 185.722656 Z M 84.613281 185.71875 " fill-opacity="1" fill-rule="nonzero"/><path fill="#2ec4b6" d="M 95.019531 178.699219 C 91.816406 180.722656 88.734375 182.933594 85.59375 185.050781 C 85.175781 186.339844 85.542969 187.832031 85.5 189.203125 C 85.613281 191.335938 85.648438 193.484375 85.871094 195.613281 C 86.5 196.398438 87.335938 195.164062 87.992188 194.949219 C 89.804688 193.796875 91.574219 192.582031 93.386719 191.429688 C 90.925781 193.203125 88.265625 194.75 85.851562 196.566406 C 85.765625 198.667969 86.058594 200.875 86.101562 203.015625 C 86.167969 203.59375 86.054688 205.042969 87.019531 204.703125 C 90.082031 202.5625 93.324219 200.652344 96.242188 198.3125 C 96.917969 197.5 96.273438 196.335938 96.421875 195.390625 C 96.113281 189.941406 96.179688 184.457031 95.648438 179.03125 C 95.589844 178.753906 95.285156 178.570312 95.019531 178.695312 Z M 95.019531 178.699219 " fill-opacity="1" fill-rule="nonzero"/><path fill="#2ec4b6" d="M 85.292969 197.140625 C 82.992188 198.132812 80.992188 199.769531 78.859375 201.082031 C 77.390625 202.167969 75.648438 202.984375 74.34375 204.238281 C 74.425781 206.9375 74.160156 209.675781 74.503906 212.351562 C 75.085938 213.242188 75.988281 211.886719 76.613281 211.679688 C 79.75 209.53125 83.027344 207.515625 86.074219 205.277344 C 86.15625 203.25 85.863281 201.140625 85.898438 199.070312 C 85.769531 198.496094 86.105469 197.265625 85.292969 197.140625 Z M 85.292969 197.140625 " fill-opacity="1" fill-rule="nonzero"/><path fill="#2ec4b6" d="M 73.769531 204.636719 C 70.699219 206.308594 67.855469 208.4375 64.890625 210.304688 C 64.449219 211.566406 64.824219 213.066406 64.699219 214.421875 C 64.796875 215.894531 64.511719 217.4375 64.898438 218.867188 C 65.613281 219.582031 66.417969 218.289062 67.085938 218.070312 C 69.457031 216.4375 71.953125 214.921875 74.230469 213.191406 C 74.410156 210.523438 74.28125 207.75 74.21875 205.042969 C 74.183594 204.84375 73.984375 204.617188 73.769531 204.636719 Z M 73.769531 204.636719 " fill-opacity="1" fill-rule="nonzero"/><path fill="#ffffff" d="M 34.039062 168.910156 C 33.625 170.175781 33.917969 171.628906 33.792969 172.960938 C 33.8125 175.015625 33.648438 177.105469 33.792969 179.136719 C 36.171875 181.03125 38.859375 182.664062 41.363281 184.449219 C 42.175781 184.902344 42.855469 185.6875 43.761719 185.894531 C 44.464844 185.234375 43.925781 184.015625 44.113281 183.136719 C 44.078125 180.554688 44.210938 177.933594 44.046875 175.375 C 41.671875 173.511719 39.011719 171.878906 36.507812 170.136719 C 35.707031 169.8125 34.9375 168.65625 34.035156 168.910156 Z M 34.039062 168.910156 " fill-opacity="1" fill-rule="nonzero"/><path fill="#ffffff" d="M 44.308594 176.003906 C 44.210938 179.277344 44.078125 182.59375 44.300781 185.867188 C 44.835938 187.21875 46.421875 187.746094 47.460938 188.640625 C 49.792969 190.191406 52.054688 191.90625 54.4375 193.339844 C 55.375 193.09375 54.808594 191.601562 55.042969 190.8125 C 55.128906 188.199219 55.28125 185.546875 55.152344 182.957031 C 52.789062 181.078125 50.105469 179.472656 47.617188 177.703125 C 46.585938 177.109375 45.699219 176.171875 44.582031 175.796875 L 44.441406 175.90625 Z M 44.308594 176.003906 " fill-opacity="1" fill-rule="nonzero"/><path fill="#ffffff" d="M 55.378906 183.546875 C 55.25 186.898438 55.054688 190.289062 55.226562 193.648438 C 55.566406 194.585938 56.808594 194.835938 57.488281 195.511719 C 59.597656 196.882812 61.566406 198.554688 63.832031 199.640625 C 64.835938 199.453125 64.410156 198.042969 64.5625 197.320312 C 64.570312 194.671875 64.710938 191.984375 64.574219 189.359375 C 62.1875 187.46875 59.480469 185.855469 56.972656 184.070312 C 56.488281 183.863281 55.902344 182.980469 55.378906 183.542969 Z M 55.378906 183.546875 " fill-opacity="1" fill-rule="nonzero"/><path fill="#ffffff" d="M 55.203125 194.578125 C 55.027344 197.75 54.964844 200.957031 54.960938 204.140625 C 56.503906 205.597656 58.476562 206.636719 60.191406 207.925781 C 61.5 208.71875 62.703125 209.851562 64.101562 210.414062 C 64.902344 210.21875 64.460938 209.03125 64.617188 208.414062 C 64.59375 205.683594 64.820312 202.917969 64.484375 200.210938 C 64.007812 199.664062 63.136719 199.527344 62.566406 199.015625 C 60.210938 197.554688 58 195.804688 55.636719 194.398438 C 55.449219 194.261719 55.347656 194.515625 55.203125 194.574219 Z M 55.203125 194.578125 " fill-opacity="1" fill-rule="nonzero"/><path fill="#ffffff" d="M 44.953125 187.140625 C 44.035156 187.488281 44.535156 188.820312 44.363281 189.570312 C 44.386719 192.054688 44.269531 194.574219 44.4375 197.03125 C 46.902344 198.96875 49.683594 200.644531 52.273438 202.480469 C 53.039062 202.75 54.097656 204.375 54.746094 203.390625 C 54.925781 200.253906 55.089844 197.070312 54.945312 193.949219 C 52.582031 192.074219 49.910156 190.460938 47.421875 188.695312 C 46.59375 188.210938 45.847656 187.46875 44.957031 187.140625 Z M 44.953125 187.140625 " fill-opacity="1" fill-rule="nonzero"/><path fill="#ffffff" d="M 33.769531 179.894531 C 33.496094 183.078125 33.71875 186.320312 33.652344 189.523438 C 34.503906 190.625 35.988281 191.195312 37.082031 192.089844 C 39.238281 193.542969 41.359375 195.058594 43.5625 196.433594 C 44.59375 196.511719 44.117188 195.066406 44.265625 194.445312 C 44.222656 191.761719 44.425781 189.003906 43.9375 186.378906 C 40.84375 184.0625 37.550781 181.914062 34.328125 179.742188 C 34.09375 179.699219 33.925781 179.695312 33.769531 179.894531 Z M 33.769531 179.894531 " fill-opacity="1" fill-rule="nonzero"/><path fill="#ffffff" d="M 33.851562 190.417969 C 33.472656 192.003906 33.730469 193.734375 33.601562 195.367188 C 33.703125 196.644531 33.304688 198.070312 33.734375 199.253906 C 37.074219 201.375 40.34375 203.679688 43.730469 205.683594 C 44.714844 205.328125 44 203.683594 44.238281 202.796875 C 44.179688 200.917969 44.449219 198.972656 44.136719 197.132812 C 40.972656 194.722656 37.667969 192.464844 34.316406 190.324219 C 34.148438 190.222656 34.003906 190.390625 33.851562 190.421875 Z M 33.851562 190.417969 " fill-opacity="1" fill-rule="nonzero"/><path fill="#ffffff" d="M 44.550781 197.722656 C 44.125 198.921875 44.46875 200.316406 44.375 201.582031 C 44.492188 203.152344 44.257812 204.804688 44.605469 206.320312 C 47.695312 208.34375 50.753906 210.417969 53.886719 212.371094 C 54.875 212.503906 54.617188 211.082031 54.746094 210.457031 C 54.828125 208.433594 54.910156 206.371094 54.761719 204.371094 C 52.304688 202.429688 49.546875 200.738281 46.960938 198.917969 C 46.179688 198.585938 45.425781 197.457031 44.550781 197.722656 Z M 44.550781 197.722656 " fill-opacity="1" fill-rule="nonzero"/><path fill="#ffffff" d="M 55.191406 204.867188 C 54.59375 205.644531 55.0625 206.824219 54.882812 207.746094 C 54.941406 209.515625 54.667969 211.355469 54.960938 213.078125 C 58.003906 215.027344 60.992188 217.140625 64.085938 218.964844 C 65.070312 218.609375 64.355469 216.964844 64.59375 216.078125 C 64.578125 214.390625 64.726562 212.679688 64.5 211.003906 C 62.167969 209.242188 59.632812 207.664062 57.21875 205.964844 C 56.546875 205.632812 55.972656 204.839844 55.191406 204.867188 Z M 55.191406 204.867188 " fill-opacity="1" fill-rule="nonzero"/><g clip-path="url(#id2)"><path fill="#000000" d="M 34.253906 168.121094 L 64.359375 188.671875 L 63.96875 188.671875 L 95.40625 167.371094 L 95.40625 167.957031 L 63.871094 147.730469 L 64.261719 147.730469 L 34.253906 168.707031 L 34.253906 168.121094 M 33.863281 168.707031 C 33.8125 168.675781 33.773438 168.632812 33.746094 168.582031 C 33.714844 168.527344 33.703125 168.472656 33.703125 168.414062 C 33.703125 168.355469 33.714844 168.296875 33.746094 168.246094 C 33.773438 168.191406 33.8125 168.152344 33.863281 168.121094 L 63.871094 147.144531 C 64 147.03125 64.128906 147.03125 64.261719 147.144531 L 95.792969 167.371094 C 95.84375 167.402344 95.886719 167.445312 95.914062 167.496094 C 95.941406 167.546875 95.957031 167.605469 95.957031 167.664062 C 95.957031 167.722656 95.941406 167.777344 95.914062 167.832031 C 95.886719 167.882812 95.84375 167.925781 95.792969 167.957031 L 64.359375 189.257812 C 64.226562 189.328125 64.097656 189.328125 63.96875 189.257812 Z M 33.863281 168.707031 " fill-opacity="1" fill-rule="nonzero"/></g><path fill="#000000" d="M 34.15625 168.804688 L 33.863281 199.144531 L 33.703125 198.847656 L 65.074219 219.300781 L 64.683594 219.300781 L 96.378906 198.03125 L 96.21875 198.328125 L 95.046875 168.183594 C 95.046875 167.988281 95.179688 167.828125 95.371094 167.828125 C 95.5625 167.828125 95.730469 167.960938 95.730469 168.152344 L 96.902344 198.292969 C 96.902344 198.421875 96.847656 198.519531 96.738281 198.589844 L 65.039062 219.855469 C 64.910156 219.925781 64.78125 219.925781 64.652344 219.855469 L 33.28125 199.402344 C 33.179688 199.332031 33.125 199.234375 33.117188 199.109375 L 33.410156 168.773438 C 33.410156 168.671875 33.445312 168.589844 33.515625 168.519531 C 33.585938 168.449219 33.667969 168.414062 33.765625 168.414062 C 33.871094 168.421875 33.960938 168.460938 34.035156 168.535156 C 34.109375 168.609375 34.148438 168.699219 34.15625 168.804688 Z M 34.15625 168.804688 " fill-opacity="1" fill-rule="nonzero"/><path fill="#000000" d="M 44.039062 205.667969 L 43.746094 175.394531 C 43.746094 175.265625 43.800781 175.167969 43.910156 175.101562 L 73.203125 153.898438 C 73.277344 153.839844 73.363281 153.816406 73.457031 153.832031 C 73.554688 153.84375 73.628906 153.886719 73.6875 153.964844 C 73.785156 154.097656 73.753906 154.355469 73.621094 154.453125 L 44.332031 175.65625 L 44.496094 175.363281 L 44.789062 205.636719 C 44.785156 205.734375 44.75 205.816406 44.683594 205.886719 C 44.613281 205.957031 44.527344 205.992188 44.429688 205.996094 C 44.234375 205.996094 44.039062 205.859375 44.039062 205.667969 Z M 44.039062 205.667969 " fill-opacity="1" fill-rule="nonzero"/><path fill="#000000" d="M 54.378906 212.320312 L 54.867188 183.550781 C 54.875 183.425781 54.925781 183.328125 55.027344 183.257812 L 85.164062 161.5625 C 85.242188 161.503906 85.332031 161.480469 85.429688 161.503906 C 85.527344 161.523438 85.601562 161.574219 85.652344 161.660156 C 85.75 161.824219 85.71875 162.050781 85.554688 162.148438 L 55.449219 183.84375 L 55.613281 183.550781 L 55.125 212.320312 C 55.125 212.417969 55.089844 212.503906 55.019531 212.574219 C 54.949219 212.644531 54.867188 212.679688 54.769531 212.679688 C 54.574219 212.679688 54.378906 212.515625 54.378906 212.320312 Z M 54.378906 212.320312 " fill-opacity="1" fill-rule="nonzero"/><path fill="#000000" d="M 64.945312 189.585938 L 64.976562 219.53125 C 64.972656 219.625 64.933594 219.707031 64.867188 219.773438 C 64.796875 219.839844 64.714844 219.875 64.617188 219.875 C 64.523438 219.875 64.441406 219.839844 64.371094 219.773438 C 64.300781 219.707031 64.265625 219.625 64.261719 219.53125 L 64.226562 189.585938 C 64.230469 189.488281 64.269531 189.40625 64.339844 189.339844 C 64.40625 189.273438 64.488281 189.242188 64.585938 189.242188 C 64.683594 189.242188 64.765625 189.273438 64.832031 189.339844 C 64.902344 189.40625 64.941406 189.488281 64.945312 189.585938 Z M 64.945312 189.585938 " fill-opacity="1" fill-rule="nonzero"/><path fill="#000000" d="M 74.761719 212.972656 C 74.765625 213.074219 74.734375 213.164062 74.664062 213.238281 C 74.589844 213.3125 74.503906 213.347656 74.402344 213.347656 C 74.300781 213.347656 74.214844 213.3125 74.144531 213.238281 C 74.074219 213.164062 74.042969 213.074219 74.046875 212.972656 L 73.914062 182.40625 L 74.074219 182.703125 L 43.976562 162.148438 C 43.816406 162.050781 43.78125 161.824219 43.878906 161.660156 C 43.976562 161.496094 44.207031 161.464844 44.367188 161.5625 L 74.46875 182.113281 C 74.578125 182.183594 74.632812 182.28125 74.632812 182.410156 L 74.765625 212.972656 L 74.046875 212.972656 C 74.050781 212.878906 74.085938 212.796875 74.15625 212.730469 C 74.226562 212.664062 74.308594 212.628906 74.402344 212.628906 C 74.5 212.628906 74.582031 212.664062 74.652344 212.730469 C 74.71875 212.796875 74.757812 212.878906 74.761719 212.972656 Z M 74.761719 212.972656 " fill-opacity="1" fill-rule="nonzero"/><path fill="#000000" d="M 85.75 204.523438 L 84.546875 174.742188 L 84.710938 175.035156 L 54.867188 154.8125 C 54.703125 154.710938 54.671875 154.484375 54.769531 154.320312 C 54.867188 154.160156 55.09375 154.125 55.253906 154.222656 L 85.097656 174.449219 C 85.207031 174.515625 85.261719 174.613281 85.261719 174.742188 L 86.464844 204.523438 C 86.464844 204.722656 86.332031 204.882812 86.140625 204.882812 C 85.910156 204.851562 85.75 204.722656 85.75 204.523438 Z M 85.75 204.523438 " fill-opacity="1" fill-rule="nonzero"/><path fill="#000000" d="M 33.734375 178.820312 L 64 199.597656 L 63.609375 199.597656 L 94.949219 178.199219 C 95.113281 178.101562 95.339844 178.132812 95.4375 178.296875 C 95.535156 178.460938 95.503906 178.6875 95.339844 178.785156 L 64 200.1875 C 63.867188 200.285156 63.707031 200.285156 63.609375 200.1875 L 33.34375 179.40625 C 33.183594 179.308594 33.148438 179.082031 33.246094 178.917969 C 33.34375 178.753906 33.570312 178.722656 33.734375 178.820312 Z M 33.734375 178.820312 " fill-opacity="1" fill-rule="nonzero"/><path fill="#000000" d="M 34.15625 189.648438 L 64.421875 210.429688 L 64.035156 210.429688 L 95.015625 189.941406 C 95.179688 189.847656 95.40625 189.875 95.503906 190.042969 C 95.601562 190.207031 95.570312 190.433594 95.40625 190.53125 L 64.421875 211.015625 C 64.292969 211.085938 64.164062 211.085938 64.03125 211.015625 L 33.765625 190.238281 C 33.605469 190.140625 33.570312 189.910156 33.667969 189.746094 C 33.765625 189.585938 33.992188 189.550781 34.15625 189.648438 Z M 34.15625 189.648438 " fill-opacity="1" fill-rule="nonzero"/><path fill="#000000" d="M 29.996094 176.503906 C 29.867188 172.128906 29.832031 169 29.800781 167.074219 C 29.800781 166.488281 29.832031 166.128906 29.964844 165.902344 L 29.929688 165.933594 C 30.097656 165.511719 30.546875 165.054688 31.296875 164.53125 L 31.199219 164.628906 L 31.296875 164.53125 C 31.492188 164.367188 33.117188 163.292969 36.171875 161.367188 C 36.25 161.300781 36.335938 161.277344 36.4375 161.289062 C 36.535156 161.304688 36.613281 161.355469 36.667969 161.441406 C 36.722656 161.523438 36.734375 161.617188 36.707031 161.710938 C 36.679688 161.808594 36.621094 161.878906 36.53125 161.921875 C 33.507812 163.8125 31.914062 164.859375 31.71875 165.019531 L 31.785156 164.953125 L 31.6875 165.050781 C 31.039062 165.507812 30.679688 165.867188 30.550781 166.160156 C 30.550781 166.183594 30.539062 166.195312 30.515625 166.195312 C 30.449219 166.292969 30.449219 166.554688 30.449219 167.007812 C 30.449219 168.933594 30.515625 172.066406 30.644531 176.4375 C 30.652344 176.53125 30.621094 176.609375 30.554688 176.671875 C 30.492188 176.738281 30.414062 176.769531 30.320312 176.761719 C 30.125 176.761719 29.996094 176.695312 29.996094 176.503906 Z M 29.996094 176.503906 " fill-opacity="1" fill-rule="nonzero"/><g clip-path="url(#id3)"><path fill="#000000" d="M 26.84375 171.25 L 26.84375 168.511719 C 26.84375 168.421875 26.875 168.34375 26.9375 168.28125 C 27 168.21875 27.078125 168.183594 27.167969 168.183594 C 27.371094 168.199219 27.480469 168.308594 27.492188 168.511719 L 27.492188 171.25 C 27.496094 171.339844 27.46875 171.421875 27.402344 171.484375 C 27.335938 171.550781 27.257812 171.582031 27.167969 171.574219 C 27.074219 171.582031 26.996094 171.550781 26.933594 171.488281 C 26.867188 171.421875 26.835938 171.34375 26.84375 171.25 Z M 26.84375 171.25 " fill-opacity="1" fill-rule="nonzero"/></g><path fill="#000000" d="M 99.011719 182.210938 C 99.011719 182.34375 99.046875 182.539062 99.046875 182.832031 C 99.242188 185.082031 99.371094 186.289062 99.371094 186.386719 L 99.371094 186.355469 C 99.4375 187.074219 99.503906 188.019531 99.597656 189.226562 C 99.730469 191.117188 99.859375 193.367188 99.988281 196.011719 C 99.988281 196.207031 99.855469 196.335938 99.664062 196.371094 C 99.472656 196.402344 99.339844 196.238281 99.304688 196.042969 C 99.175781 193.402344 99.046875 191.148438 98.914062 189.289062 C 98.816406 188.082031 98.753906 187.105469 98.6875 186.421875 L 98.6875 186.324219 L 98.6875 186.390625 C 98.6875 186.292969 98.589844 185.121094 98.363281 182.867188 C 98.339844 182.652344 98.328125 182.433594 98.332031 182.214844 C 98.332031 182.125 98.363281 182.050781 98.425781 181.984375 C 98.488281 181.921875 98.566406 181.890625 98.65625 181.890625 C 98.851562 181.890625 99.011719 182.023438 99.011719 182.214844 Z M 99.011719 182.210938 " fill-opacity="1" fill-rule="nonzero"/><path fill="#000000" d="M 102.558594 188.34375 L 102.558594 188.636719 C 102.558594 189.195312 102.589844 189.488281 102.589844 189.550781 C 102.589844 190.269531 102.621094 190.890625 102.621094 191.445312 L 102.621094 194.347656 C 102.621094 194.4375 102.589844 194.515625 102.527344 194.578125 C 102.464844 194.640625 102.386719 194.671875 102.296875 194.671875 C 102.09375 194.660156 101.984375 194.550781 101.972656 194.347656 L 101.972656 191.476562 C 101.972656 190.921875 101.972656 190.300781 101.941406 189.617188 C 101.941406 189.550781 101.941406 189.257812 101.90625 188.703125 L 101.90625 188.410156 C 101.902344 188.316406 101.929688 188.238281 101.996094 188.175781 C 102.0625 188.109375 102.140625 188.078125 102.230469 188.082031 C 102.425781 188.082031 102.558594 188.183594 102.558594 188.34375 Z M 102.558594 188.34375 " fill-opacity="1" fill-rule="nonzero"/><g clip-path="url(#id4)"><path fill="#000000" d="M 104.765625 196.273438 L 104.765625 196.828125 L 104.832031 197.578125 C 104.839844 197.78125 104.742188 197.898438 104.542969 197.933594 C 104.378906 197.96875 104.214844 197.800781 104.183594 197.640625 L 104.117188 196.890625 L 104.117188 196.273438 C 104.117188 196.183594 104.148438 196.105469 104.210938 196.042969 C 104.277344 195.976562 104.351562 195.945312 104.441406 195.945312 C 104.644531 195.960938 104.753906 196.066406 104.765625 196.273438 Z M 104.765625 196.273438 " fill-opacity="1" fill-rule="nonzero"/></g><path fill="#000000" d="M 51.84375 216.984375 C 52.425781 217.34375 55.808594 219.855469 61.984375 224.554688 C 62.058594 224.609375 62.097656 224.679688 62.113281 224.769531 C 62.125 224.859375 62.105469 224.9375 62.050781 225.011719 C 61.996094 225.082031 61.925781 225.125 61.835938 225.136719 C 61.746094 225.152344 61.667969 225.128906 61.59375 225.078125 C 55.417969 220.410156 52.035156 217.898438 51.484375 217.539062 C 51.40625 217.492188 51.355469 217.421875 51.335938 217.332031 C 51.316406 217.242188 51.335938 217.160156 51.386719 217.085938 C 51.433594 217.007812 51.503906 216.957031 51.59375 216.9375 C 51.683594 216.917969 51.765625 216.933594 51.84375 216.984375 Z M 51.84375 216.984375 " fill-opacity="1" fill-rule="nonzero"/><path fill="#000000" d="M 65.429688 224.683594 C 67.707031 222.664062 71.152344 220.3125 75.800781 217.574219 C 75.882812 217.527344 75.964844 217.519531 76.054688 217.542969 C 76.144531 217.570312 76.210938 217.621094 76.253906 217.703125 C 76.300781 217.785156 76.308594 217.871094 76.285156 217.960938 C 76.261719 218.046875 76.207031 218.117188 76.125 218.160156 C 71.507812 220.867188 68.097656 223.21875 65.851562 225.207031 C 65.785156 225.269531 65.707031 225.296875 65.617188 225.289062 C 65.527344 225.28125 65.453125 225.246094 65.398438 225.175781 C 65.28125 225.003906 65.289062 224.839844 65.429688 224.683594 Z M 65.429688 224.683594 " fill-opacity="1" fill-rule="nonzero"/><path fill="#000000" d="M 52.71875 221.8125 C 53.792969 222.5625 55.417969 223.835938 57.597656 225.597656 C 57.730469 225.730469 57.757812 225.925781 57.664062 226.054688 C 57.53125 226.210938 57.378906 226.230469 57.207031 226.121094 C 55.03125 224.390625 53.402344 223.121094 52.363281 222.371094 C 52.28125 222.320312 52.234375 222.25 52.222656 222.15625 C 52.207031 222.0625 52.234375 221.984375 52.296875 221.914062 C 52.429688 221.78125 52.589844 221.683594 52.71875 221.816406 Z M 52.71875 221.8125 " fill-opacity="1" fill-rule="nonzero"/><path fill="#000000" d="M 54.441406 226.609375 C 54.636719 226.804688 54.964844 227.066406 55.351562 227.390625 C 55.484375 227.527344 55.515625 227.71875 55.386719 227.847656 C 55.253906 227.980469 55.058594 228.011719 54.929688 227.882812 C 54.539062 227.554688 54.214844 227.292969 54.019531 227.097656 C 53.886719 226.964844 53.855469 226.773438 53.988281 226.640625 C 54.117188 226.511719 54.3125 226.480469 54.441406 226.609375 Z M 54.441406 226.609375 " fill-opacity="1" fill-rule="nonzero"/><path fill="#2ec4b6" d="M 83.910156 175.820312 C 80.871094 178.019531 77.445312 179.878906 74.648438 182.296875 C 74.78125 185.441406 74.398438 188.710938 74.820312 191.789062 C 78.253906 190.101562 81.726562 187.441406 84.832031 185.082031 C 84.945312 182.015625 85.441406 178.707031 84.296875 175.8125 Z M 83.910156 175.820312 " fill-opacity="1" fill-rule="nonzero"/><g fill="#2b2d42" fill-opacity="1"><g transform="translate(132.281597, 201.919734)"><g><path d="M 2.953125 -27.140625 L 13.609375 -27.140625 C 16.515625 -27.140625 18.648438 -26.5625 20.015625 -25.40625 C 21.390625 -24.25 22.078125 -22.378906 22.078125 -19.796875 C 22.078125 -18.410156 21.847656 -17.265625 21.390625 -16.359375 C 20.941406 -15.460938 20.171875 -14.664062 19.078125 -13.96875 C 20.273438 -13.488281 21.160156 -12.753906 21.734375 -11.765625 C 22.304688 -10.785156 22.59375 -9.5 22.59375 -7.90625 C 22.59375 -5.238281 21.832031 -3.253906 20.3125 -1.953125 C 18.800781 -0.648438 16.617188 0 13.765625 0 L 2.953125 0 Z M 13.375 -15.96875 C 15.445312 -15.96875 16.484375 -17.046875 16.484375 -19.203125 C 16.484375 -21.359375 15.429688 -22.4375 13.328125 -22.4375 L 8.46875 -22.4375 L 8.46875 -15.96875 Z M 13.5 -4.703125 C 14.695312 -4.703125 15.578125 -4.945312 16.140625 -5.4375 C 16.710938 -5.9375 17 -6.769531 17 -7.9375 C 17 -9.113281 16.71875 -9.972656 16.15625 -10.515625 C 15.601562 -11.066406 14.71875 -11.34375 13.5 -11.34375 L 8.46875 -11.34375 L 8.46875 -4.703125 Z M 13.5 -4.703125 "/></g></g></g><g fill="#2b2d42" fill-opacity="1"><g transform="translate(156.589303, 201.919734)"><g><path d="M 8.9375 0.484375 C 7.238281 0.484375 5.898438 0.140625 4.921875 -0.546875 C 3.953125 -1.242188 3.269531 -2.3125 2.875 -3.75 C 2.476562 -5.1875 2.28125 -7.101562 2.28125 -9.5 L 2.28125 -19.953125 L 7.625 -19.953125 L 7.625 -9.421875 C 7.625 -7.984375 7.691406 -6.910156 7.828125 -6.203125 C 7.960938 -5.503906 8.234375 -5.015625 8.640625 -4.734375 C 9.054688 -4.453125 9.691406 -4.3125 10.546875 -4.3125 C 11.148438 -4.3125 11.695312 -4.363281 12.1875 -4.46875 C 12.6875 -4.570312 13.375 -4.757812 14.25 -5.03125 L 14.25 -19.953125 L 19.609375 -19.953125 L 19.609375 0 L 14.296875 0 L 14.296875 -1.125 C 13.171875 -0.507812 12.21875 -0.0859375 11.4375 0.140625 C 10.65625 0.367188 9.820312 0.484375 8.9375 0.484375 Z M 8.9375 0.484375 "/></g></g></g><g fill="#2b2d42" fill-opacity="1"><g transform="translate(178.661819, 201.919734)"><g><path d="M 2.46875 0 Z M 2.46875 -19.953125 L 7.828125 -19.953125 L 7.828125 0 L 2.46875 0 Z M 2.671875 -27.578125 L 8.03125 -27.578125 L 8.03125 -22.203125 L 2.671875 -22.203125 Z M 2.671875 -27.578125 "/></g></g></g><g fill="#2b2d42" fill-opacity="1"><g transform="translate(188.95967, 201.919734)"><g><path d="M 2.71875 -27.9375 L 8.0625 -27.9375 L 8.0625 0 L 2.71875 0 Z M 2.71875 -27.9375 "/></g></g></g><g fill="#2b2d42" fill-opacity="1"><g transform="translate(199.736491, 201.919734)"><g><path d="M 9.015625 0.484375 C 6.359375 0.484375 4.441406 -0.359375 3.265625 -2.046875 C 2.097656 -3.742188 1.515625 -6.296875 1.515625 -9.703125 C 1.515625 -13.429688 2.171875 -16.148438 3.484375 -17.859375 C 4.804688 -19.578125 6.835938 -20.4375 9.578125 -20.4375 C 10.566406 -20.4375 12.070312 -20.25 14.09375 -19.875 L 14.09375 -27.9375 L 19.4375 -27.9375 L 19.4375 0 L 14.125 0 L 14.125 -0.84375 C 13.039062 -0.332031 12.113281 0.015625 11.34375 0.203125 C 10.570312 0.390625 9.796875 0.484375 9.015625 0.484375 Z M 10.265625 -4.3125 C 11.222656 -4.3125 12.3125 -4.472656 13.53125 -4.796875 L 14.09375 -4.90625 L 14.09375 -15.40625 C 12.675781 -15.675781 11.492188 -15.8125 10.546875 -15.8125 C 9.265625 -15.8125 8.34375 -15.359375 7.78125 -14.453125 C 7.226562 -13.546875 6.953125 -12.003906 6.953125 -9.828125 C 6.953125 -7.828125 7.203125 -6.40625 7.703125 -5.5625 C 8.210938 -4.726562 9.066406 -4.3125 10.265625 -4.3125 Z M 10.265625 -4.3125 "/></g></g></g><g fill="#2b2d42" fill-opacity="1"><g transform="translate(221.64935, 201.919734)"><g/></g></g><g fill="#2b2d42" fill-opacity="1"><g transform="translate(230.430458, 201.919734)"><g><path d="M 2.953125 -27.140625 L 13.609375 -27.140625 C 16.515625 -27.140625 18.648438 -26.5625 20.015625 -25.40625 C 21.390625 -24.25 22.078125 -22.378906 22.078125 -19.796875 C 22.078125 -18.410156 21.847656 -17.265625 21.390625 -16.359375 C 20.941406 -15.460938 20.171875 -14.664062 19.078125 -13.96875 C 20.273438 -13.488281 21.160156 -12.753906 21.734375 -11.765625 C 22.304688 -10.785156 22.59375 -9.5 22.59375 -7.90625 C 22.59375 -5.238281 21.832031 -3.253906 20.3125 -1.953125 C 18.800781 -0.648438 16.617188 0 13.765625 0 L 2.953125 0 Z M 13.375 -15.96875 C 15.445312 -15.96875 16.484375 -17.046875 16.484375 -19.203125 C 16.484375 -21.359375 15.429688 -22.4375 13.328125 -22.4375 L 8.46875 -22.4375 L 8.46875 -15.96875 Z M 13.5 -4.703125 C 14.695312 -4.703125 15.578125 -4.945312 16.140625 -5.4375 C 16.710938 -5.9375 17 -6.769531 17 -7.9375 C 17 -9.113281 16.71875 -9.972656 16.15625 -10.515625 C 15.601562 -11.066406 14.71875 -11.34375 13.5 -11.34375 L 8.46875 -11.34375 L 8.46875 -4.703125 Z M 13.5 -4.703125 "/></g></g></g><g fill="#2b2d42" fill-opacity="1"><g transform="translate(254.738165, 201.919734)"><g><path d="M 8.9375 0.484375 C 7.238281 0.484375 5.898438 0.140625 4.921875 -0.546875 C 3.953125 -1.242188 3.269531 -2.3125 2.875 -3.75 C 2.476562 -5.1875 2.28125 -7.101562 2.28125 -9.5 L 2.28125 -19.953125 L 7.625 -19.953125 L 7.625 -9.421875 C 7.625 -7.984375 7.691406 -6.910156 7.828125 -6.203125 C 7.960938 -5.503906 8.234375 -5.015625 8.640625 -4.734375 C 9.054688 -4.453125 9.691406 -4.3125 10.546875 -4.3125 C 11.148438 -4.3125 11.695312 -4.363281 12.1875 -4.46875 C 12.6875 -4.570312 13.375 -4.757812 14.25 -5.03125 L 14.25 -19.953125 L 19.609375 -19.953125 L 19.609375 0 L 14.296875 0 L 14.296875 -1.125 C 13.171875 -0.507812 12.21875 -0.0859375 11.4375 0.140625 C 10.65625 0.367188 9.820312 0.484375 8.9375 0.484375 Z M 8.9375 0.484375 "/></g></g></g><g fill="#2b2d42" fill-opacity="1"><g transform="translate(276.810681, 201.919734)"><g><path d="M 9.015625 0.484375 C 6.359375 0.484375 4.441406 -0.359375 3.265625 -2.046875 C 2.097656 -3.742188 1.515625 -6.296875 1.515625 -9.703125 C 1.515625 -13.429688 2.171875 -16.148438 3.484375 -17.859375 C 4.804688 -19.578125 6.835938 -20.4375 9.578125 -20.4375 C 10.566406 -20.4375 12.070312 -20.25 14.09375 -19.875 L 14.09375 -27.9375 L 19.4375 -27.9375 L 19.4375 0 L 14.125 0 L 14.125 -0.84375 C 13.039062 -0.332031 12.113281 0.015625 11.34375 0.203125 C 10.570312 0.390625 9.796875 0.484375 9.015625 0.484375 Z M 10.265625 -4.3125 C 11.222656 -4.3125 12.3125 -4.472656 13.53125 -4.796875 L 14.09375 -4.90625 L 14.09375 -15.40625 C 12.675781 -15.675781 11.492188 -15.8125 10.546875 -15.8125 C 9.265625 -15.8125 8.34375 -15.359375 7.78125 -14.453125 C 7.226562 -13.546875 6.953125 -12.003906 6.953125 -9.828125 C 6.953125 -7.828125 7.203125 -6.40625 7.703125 -5.5625 C 8.210938 -4.726562 9.066406 -4.3125 10.265625 -4.3125 Z M 10.265625 -4.3125 "/></g></g></g><g fill="#2b2d42" fill-opacity="1"><g transform="translate(298.723541, 201.919734)"><g><path d="M 9.015625 0.484375 C 6.359375 0.484375 4.441406 -0.359375 3.265625 -2.046875 C 2.097656 -3.742188 1.515625 -6.296875 1.515625 -9.703125 C 1.515625 -13.429688 2.171875 -16.148438 3.484375 -17.859375 C 4.804688 -19.578125 6.835938 -20.4375 9.578125 -20.4375 C 10.566406 -20.4375 12.070312 -20.25 14.09375 -19.875 L 14.09375 -27.9375 L 19.4375 -27.9375 L 19.4375 0 L 14.125 0 L 14.125 -0.84375 C 13.039062 -0.332031 12.113281 0.015625 11.34375 0.203125 C 10.570312 0.390625 9.796875 0.484375 9.015625 0.484375 Z M 10.265625 -4.3125 C 11.222656 -4.3125 12.3125 -4.472656 13.53125 -4.796875 L 14.09375 -4.90625 L 14.09375 -15.40625 C 12.675781 -15.675781 11.492188 -15.8125 10.546875 -15.8125 C 9.265625 -15.8125 8.34375 -15.359375 7.78125 -14.453125 C 7.226562 -13.546875 6.953125 -12.003906 6.953125 -9.828125 C 6.953125 -7.828125 7.203125 -6.40625 7.703125 -5.5625 C 8.210938 -4.726562 9.066406 -4.3125 10.265625 -4.3125 Z M 10.265625 -4.3125 "/></g></g></g><g fill="#2b2d42" fill-opacity="1"><g transform="translate(320.6364, 201.919734)"><g><path d="M 9.296875 0 L 5.546875 0 L 0.640625 -19.953125 L 5.90625 -19.953125 L 9.546875 -4.546875 L 10.453125 -4.546875 L 14.09375 -19.953125 L 19.359375 -19.953125 L 12.328125 8.390625 L 7.109375 8.390625 Z M 9.296875 0 "/></g></g></g></svg>