<svg xmlns="http://www.w3.org/2000/svg" xmlns:xlink="http://www.w3.org/1999/xlink" width="500" zoomAndPan="magnify" viewBox="0 0 375 374.999991" height="500" preserveAspectRatio="xMidYMid meet" version="1.0"><defs><g/><clipPath id="id1"><path d="M 141 106.347656 L 231 106.347656 L 231 167 L 141 167 Z M 141 106.347656 " clip-rule="nonzero"/></clipPath><clipPath id="id2"><path d="M 132.042969 136 L 133 136 L 133 142 L 132.042969 142 Z M 132.042969 136 " clip-rule="nonzero"/></clipPath><clipPath id="id3"><path d="M 242 175 L 243.042969 175 L 243.042969 179 L 242 179 Z M 242 175 " clip-rule="nonzero"/></clipPath><clipPath id="id4"><path d="M 170 218 L 173 218 L 173 221.097656 L 170 221.097656 Z M 170 218 " clip-rule="nonzero"/></clipPath></defs><path fill="#ff9f1c" d="M 184.691406 107.164062 C 180.519531 110.121094 176.234375 112.9375 172.160156 116.019531 C 171.695312 117.070312 173.226562 117.414062 173.78125 118.003906 C 177.539062 120.566406 181.261719 123.203125 185.167969 125.53125 C 186.28125 125.554688 187.046875 124.398438 187.996094 123.921875 C 191.46875 121.382812 195.039062 118.960938 198.386719 116.273438 C 198.75 115.207031 197.242188 114.929688 196.652344 114.355469 C 192.835938 111.9375 189.058594 109.398438 185.179688 107.117188 C 185.007812 107.042969 184.84375 107.058594 184.691406 107.164062 Z M 184.691406 107.164062 " fill-opacity="1" fill-rule="nonzero"/><path fill="#ff9f1c" d="M 171.609375 116.667969 C 169.765625 117.28125 168.292969 118.726562 166.644531 119.726562 C 163.417969 122.039062 160.027344 124.160156 156.996094 126.722656 C 156.59375 127.78125 158.152344 128.109375 158.734375 128.710938 C 162.523438 131.277344 166.242188 133.964844 170.132812 136.371094 C 171.300781 136.285156 172.105469 135.125 173.117188 134.613281 C 176.929688 131.902344 180.769531 129.222656 184.507812 126.414062 C 185.207031 125.46875 183.71875 124.960938 183.175781 124.441406 C 179.460938 121.796875 175.613281 119.320312 171.902344 116.699219 C 171.804688 116.671875 171.707031 116.664062 171.605469 116.667969 Z M 171.609375 116.667969 " fill-opacity="1" fill-rule="nonzero"/><path fill="#ff9f1c" d="M 155.859375 127.234375 C 151.632812 130.25 147.234375 133.046875 143.175781 136.285156 C 142.535156 137.292969 144.167969 137.699219 144.703125 138.242188 C 148.675781 140.910156 152.550781 143.734375 156.628906 146.21875 C 157.84375 146.003906 158.691406 144.863281 159.75 144.277344 C 163.066406 141.882812 166.410156 139.515625 169.6875 137.0625 C 170.304688 135.921875 168.449219 135.566406 167.839844 134.910156 C 164.003906 132.363281 160.242188 129.636719 156.363281 127.191406 C 156.1875 127.109375 156.019531 127.125 155.859375 127.234375 Z M 155.859375 127.234375 " fill-opacity="1" fill-rule="nonzero"/><path fill="#ff9f1c" d="M 170.449219 136.953125 C 168.441406 137.761719 166.804688 139.3125 164.992188 140.480469 C 162.546875 142.304688 159.960938 143.984375 157.621094 145.929688 C 157.195312 147.078125 158.761719 147.605469 159.417969 148.238281 C 163.886719 151.308594 168.320312 154.445312 172.941406 157.28125 C 174.058594 157.316406 174.832031 156.164062 175.789062 155.679688 C 179.15625 153.234375 182.644531 150.917969 185.902344 148.332031 C 186.375 147.207031 184.828125 146.65625 184.175781 146.046875 C 179.726562 142.980469 175.285156 139.878906 170.738281 136.96875 C 170.644531 136.941406 170.550781 136.9375 170.453125 136.949219 Z M 170.449219 136.953125 " fill-opacity="1" fill-rule="nonzero"/><path fill="#ff9f1c" d="M 185.144531 126.144531 C 182.796875 127.464844 180.703125 129.25 178.476562 130.777344 C 176.011719 132.636719 173.414062 134.355469 171.078125 136.367188 C 170.765625 137.4375 172.339844 137.71875 172.90625 138.347656 C 177.441406 141.414062 181.882812 144.632812 186.539062 147.507812 C 187.714844 147.453125 188.558594 146.304688 189.574219 145.792969 C 193.457031 143.003906 197.449219 140.332031 201.128906 137.285156 C 201.582031 136.246094 199.996094 135.933594 199.449219 135.347656 C 194.820312 132.285156 190.324219 128.980469 185.511719 126.203125 C 185.394531 126.152344 185.273438 126.136719 185.144531 126.152344 Z M 185.144531 126.144531 " fill-opacity="1" fill-rule="nonzero"/><path fill="#ff9f1c" d="M 198.628906 116.136719 C 194.492188 119.355469 190.09375 122.28125 185.953125 125.472656 C 185.496094 126.554688 187.257812 126.867188 187.847656 127.511719 C 192.480469 130.5625 196.972656 133.851562 201.765625 136.644531 C 202.835938 136.667969 203.585938 135.550781 204.507812 135.101562 C 208.15625 132.492188 211.867188 129.957031 215.425781 127.230469 C 215.875 126.105469 214.21875 125.835938 213.617188 125.21875 C 208.820312 122.179688 204.128906 118.949219 199.167969 116.191406 C 198.996094 116.109375 198.816406 116.089844 198.628906 116.136719 Z M 198.628906 116.136719 " fill-opacity="1" fill-rule="nonzero"/><path fill="#ff9f1c" d="M 215.585938 127.007812 C 212.003906 129.941406 208.09375 132.46875 204.363281 135.222656 C 203.769531 135.867188 201.890625 136.339844 202.585938 137.421875 C 206.535156 140.023438 210.34375 142.863281 214.394531 145.308594 C 215.445312 145.828125 216.273438 144.511719 217.167969 144.140625 C 221.191406 141.421875 225.3125 138.777344 229.238281 135.949219 C 229.734375 134.851562 227.914062 134.558594 227.3125 133.929688 C 223.585938 131.601562 219.929688 129.105469 216.15625 126.894531 C 215.933594 126.792969 215.773438 126.898438 215.585938 127.007812 Z M 215.585938 127.007812 " fill-opacity="1" fill-rule="nonzero"/><path fill="#ff9f1c" d="M 201.710938 137.234375 C 196.929688 140.472656 192.25 143.894531 187.628906 147.355469 C 186.980469 148.421875 188.65625 148.832031 189.234375 149.433594 C 192.425781 151.570312 195.511719 153.894531 198.84375 155.8125 C 200.0625 156.335938 200.945312 154.867188 201.949219 154.449219 C 205.886719 151.703125 210.019531 149.21875 213.789062 146.246094 C 214.609375 145.542969 213.59375 144.777344 212.953125 144.460938 C 209.386719 142.03125 205.835938 139.578125 202.199219 137.253906 C 202.042969 137.253906 201.875 137.203125 201.71875 137.230469 Z M 201.710938 137.234375 " fill-opacity="1" fill-rule="nonzero"/><path fill="#ff9f1c" d="M 186.644531 148.109375 C 182.265625 150.925781 178.128906 154.113281 173.863281 157.105469 C 173.089844 158.175781 174.921875 158.601562 175.511719 159.199219 C 178.683594 161.300781 181.785156 163.570312 185.007812 165.566406 C 186.089844 165.519531 186.910156 164.394531 187.886719 163.921875 C 191.410156 161.453125 195.109375 159.214844 198.554688 156.636719 C 198.957031 155.550781 197.390625 155.238281 196.8125 154.617188 C 193.566406 152.421875 190.371094 150.125 187.011719 148.105469 L 186.644531 148.105469 Z M 186.644531 148.109375 " fill-opacity="1" fill-rule="nonzero"/><path fill="#2ec4b6" d="M 228.566406 136.539062 C 224.125 139.625 219.492188 142.484375 215.167969 145.710938 C 214.414062 147.664062 215.082031 149.898438 214.957031 151.945312 C 215.167969 154.53125 214.890625 157.238281 215.429688 159.746094 C 216.894531 159.941406 217.996094 158.21875 219.304688 157.640625 C 222.683594 155.496094 225.816406 152.902344 229.335938 151.011719 C 230.5625 150.355469 229.839844 148.546875 230.019531 147.425781 C 229.839844 143.878906 229.976562 140.238281 229.375 136.757812 C 229.328125 136.449219 228.777344 136.386719 228.566406 136.539062 Z M 228.566406 136.539062 " fill-opacity="1" fill-rule="nonzero"/><path fill="#2ec4b6" d="M 213.773438 146.597656 C 209.074219 149.695312 204.292969 152.78125 199.773438 156.085938 C 199.496094 160.085938 199.667969 164.242188 199.726562 168.300781 C 199.660156 169.082031 199.800781 170.824219 200.972656 170.066406 C 205.578125 166.882812 210.394531 163.96875 214.769531 160.476562 C 215.808594 159.316406 214.824219 157.601562 215.046875 156.21875 C 214.8125 153.082031 215.066406 149.847656 214.519531 146.765625 C 214.261719 146.648438 214.078125 146.421875 213.773438 146.597656 Z M 213.773438 146.597656 " fill-opacity="1" fill-rule="nonzero"/><path fill="#2ec4b6" d="M 198.65625 156.726562 C 194.328125 159.667969 189.855469 162.484375 185.675781 165.578125 C 185.535156 168.785156 185.957031 172.113281 185.898438 175.378906 C 186.140625 176.679688 185.449219 178.460938 186.480469 179.476562 C 187.816406 179.625 188.777344 178.136719 189.933594 177.621094 C 193.050781 175.429688 196.34375 173.402344 199.324219 171.078125 C 199.660156 166.53125 199.457031 161.835938 199.585938 157.234375 C 199.527344 156.792969 199.0625 156.488281 198.65625 156.726562 Z M 198.65625 156.726562 " fill-opacity="1" fill-rule="nonzero"/><path fill="#2ec4b6" d="M 198.640625 171.804688 C 194.46875 174.710938 190.097656 177.425781 186.054688 180.453125 C 185.769531 184.5 185.960938 188.699219 185.988281 192.804688 C 186.148438 193.597656 185.640625 195.636719 187.042969 195.316406 C 191.183594 192.625 195.445312 190.011719 199.425781 187.136719 C 199.742188 182.917969 199.480469 178.53125 199.574219 174.246094 C 199.425781 173.492188 200.082031 171.355469 198.640625 171.804688 Z M 198.640625 171.804688 " fill-opacity="1" fill-rule="nonzero"/><path fill="#2ec4b6" d="M 214.261719 161.164062 C 209.464844 164.496094 204.464844 167.632812 199.792969 171.085938 C 199.484375 175.570312 199.738281 180.207031 199.648438 184.746094 C 199.078125 187.058594 201.214844 186.519531 202.273438 185.332031 C 206.683594 182.34375 211.292969 179.554688 215.578125 176.449219 C 215.816406 172.648438 215.511719 168.691406 215.410156 164.835938 C 215.15625 163.640625 215.695312 161.917969 214.730469 161.128906 C 214.566406 160.988281 214.417969 161.105469 214.257812 161.164062 Z M 214.261719 161.164062 " fill-opacity="1" fill-rule="nonzero"/><path fill="#2ec4b6" d="M 229.074219 151.214844 C 224.515625 154.082031 220.132812 157.214844 215.660156 160.214844 C 215.0625 162.039062 215.589844 164.15625 215.527344 166.097656 C 215.6875 169.117188 215.734375 172.164062 216.054688 175.175781 C 216.949219 176.289062 218.140625 174.539062 219.074219 174.238281 C 221.652344 172.605469 224.171875 170.882812 226.75 169.25 C 223.246094 171.765625 219.460938 173.953125 216.023438 176.527344 C 215.902344 179.503906 216.320312 182.628906 216.386719 185.664062 C 216.480469 186.480469 216.3125 188.535156 217.691406 188.054688 C 222.046875 185.019531 226.664062 182.316406 230.8125 179.003906 C 231.773438 177.851562 230.855469 176.203125 231.070312 174.859375 C 230.632812 167.140625 230.726562 159.375 229.972656 151.683594 C 229.886719 151.292969 229.453125 151.035156 229.074219 151.214844 Z M 229.074219 151.214844 " fill-opacity="1" fill-rule="nonzero"/><path fill="#2ec4b6" d="M 215.234375 177.339844 C 211.957031 178.746094 209.113281 181.0625 206.074219 182.921875 C 203.984375 184.460938 201.503906 185.621094 199.652344 187.394531 C 199.765625 191.21875 199.386719 195.097656 199.878906 198.890625 C 200.707031 200.148438 201.992188 198.226562 202.882812 197.9375 C 207.347656 194.894531 212.003906 192.039062 216.34375 188.867188 C 216.460938 185.992188 216.042969 183.007812 216.09375 180.070312 C 215.910156 179.261719 216.386719 177.519531 215.234375 177.339844 Z M 215.234375 177.339844 " fill-opacity="1" fill-rule="nonzero"/><path fill="#2ec4b6" d="M 198.832031 187.960938 C 194.464844 190.328125 190.417969 193.34375 186.199219 195.988281 C 185.570312 197.777344 186.105469 199.902344 185.925781 201.820312 C 186.0625 203.902344 185.65625 206.09375 186.210938 208.117188 C 187.226562 209.132812 188.367188 207.300781 189.320312 206.992188 C 192.695312 204.675781 196.25 202.527344 199.488281 200.074219 C 199.742188 196.300781 199.5625 192.371094 199.472656 188.539062 C 199.421875 188.253906 199.140625 187.929688 198.832031 187.960938 Z M 198.832031 187.960938 " fill-opacity="1" fill-rule="nonzero"/><path fill="#ffffff" d="M 142.292969 137.351562 C 141.707031 139.144531 142.125 141.199219 141.945312 143.085938 C 141.96875 145.996094 141.738281 148.960938 141.945312 151.835938 C 145.328125 154.519531 149.15625 156.832031 152.71875 159.363281 C 153.871094 160.003906 154.839844 161.117188 156.132812 161.414062 C 157.132812 160.476562 156.367188 158.75 156.628906 157.5 C 156.582031 153.84375 156.769531 150.128906 156.535156 146.507812 C 153.160156 143.867188 149.371094 141.554688 145.804688 139.085938 C 144.671875 138.625 143.570312 136.988281 142.285156 137.351562 Z M 142.292969 137.351562 " fill-opacity="1" fill-rule="nonzero"/><path fill="#ffffff" d="M 156.910156 147.398438 C 156.765625 152.035156 156.582031 156.734375 156.898438 161.371094 C 157.660156 163.285156 159.917969 164.03125 161.398438 165.300781 C 164.710938 167.496094 167.929688 169.925781 171.320312 171.953125 C 172.65625 171.609375 171.851562 169.492188 172.183594 168.375 C 172.308594 164.675781 172.523438 160.917969 172.339844 157.25 C 168.976562 154.589844 165.15625 152.3125 161.613281 149.804688 C 160.152344 148.964844 158.890625 147.636719 157.300781 147.105469 L 157.097656 147.261719 Z M 156.910156 147.398438 " fill-opacity="1" fill-rule="nonzero"/><path fill="#ffffff" d="M 172.664062 158.082031 C 172.480469 162.832031 172.203125 167.632812 172.441406 172.394531 C 172.929688 173.722656 174.695312 174.074219 175.664062 175.03125 C 178.664062 176.972656 181.46875 179.339844 184.691406 180.882812 C 186.117188 180.617188 185.515625 178.617188 185.734375 177.597656 C 185.742188 173.84375 185.941406 170.035156 185.746094 166.316406 C 182.347656 163.640625 178.5 161.351562 174.929688 158.824219 C 174.238281 158.53125 173.410156 157.28125 172.664062 158.078125 Z M 172.664062 158.082031 " fill-opacity="1" fill-rule="nonzero"/><path fill="#ffffff" d="M 172.410156 173.707031 C 172.164062 178.203125 172.074219 182.746094 172.066406 187.257812 C 174.261719 189.324219 177.070312 190.792969 179.511719 192.621094 C 181.375 193.742188 183.082031 195.34375 185.074219 196.140625 C 186.214844 195.867188 185.585938 194.1875 185.808594 193.308594 C 185.777344 189.445312 186.101562 185.523438 185.621094 181.691406 C 184.945312 180.914062 183.703125 180.722656 182.890625 180 C 179.535156 177.925781 176.390625 175.449219 173.027344 173.457031 C 172.757812 173.265625 172.617188 173.621094 172.414062 173.703125 Z M 172.410156 173.707031 " fill-opacity="1" fill-rule="nonzero"/><path fill="#ffffff" d="M 157.824219 163.171875 C 156.519531 163.667969 157.234375 165.554688 156.988281 166.617188 C 157.023438 170.132812 156.851562 173.707031 157.089844 177.183594 C 160.601562 179.929688 164.554688 182.300781 168.242188 184.902344 C 169.332031 185.285156 170.839844 187.585938 171.761719 186.191406 C 172.015625 181.75 172.25 177.242188 172.046875 172.820312 C 168.683594 170.164062 164.878906 167.878906 161.335938 165.378906 C 160.160156 164.691406 159.101562 163.640625 157.828125 163.171875 Z M 157.824219 163.171875 " fill-opacity="1" fill-rule="nonzero"/><path fill="#ffffff" d="M 141.910156 152.910156 C 141.519531 157.417969 141.839844 162.011719 141.746094 166.546875 C 142.953125 168.113281 145.070312 168.914062 146.625 170.1875 C 149.695312 172.246094 152.707031 174.390625 155.847656 176.339844 C 157.3125 176.453125 156.632812 174.402344 156.84375 173.523438 C 156.785156 169.722656 157.078125 165.816406 156.378906 162.09375 C 151.976562 158.816406 147.292969 155.769531 142.703125 152.691406 C 142.371094 152.632812 142.136719 152.625 141.910156 152.910156 Z M 141.910156 152.910156 " fill-opacity="1" fill-rule="nonzero"/><path fill="#ffffff" d="M 142.023438 167.820312 C 141.484375 170.0625 141.851562 172.511719 141.671875 174.828125 C 141.816406 176.636719 141.25 178.65625 141.859375 180.332031 C 146.617188 183.335938 151.269531 186.601562 156.085938 189.445312 C 157.484375 188.9375 156.46875 186.613281 156.808594 185.355469 C 156.722656 182.691406 157.105469 179.9375 156.664062 177.328125 C 152.160156 173.914062 147.457031 170.714844 142.691406 167.683594 C 142.449219 167.542969 142.246094 167.777344 142.027344 167.824219 Z M 142.023438 167.820312 " fill-opacity="1" fill-rule="nonzero"/><path fill="#ffffff" d="M 157.25 178.164062 C 156.648438 179.863281 157.136719 181.835938 157.003906 183.632812 C 157.167969 185.855469 156.835938 188.195312 157.332031 190.34375 C 161.730469 193.210938 166.078125 196.152344 170.539062 198.917969 C 171.945312 199.101562 171.578125 197.085938 171.761719 196.207031 C 171.878906 193.339844 171.996094 190.414062 171.78125 187.582031 C 168.285156 184.835938 164.363281 182.4375 160.679688 179.855469 C 159.574219 179.390625 158.496094 177.792969 157.25 178.164062 Z M 157.25 178.164062 " fill-opacity="1" fill-rule="nonzero"/><path fill="#ffffff" d="M 172.394531 188.285156 C 171.542969 189.386719 172.210938 191.054688 171.953125 192.367188 C 172.039062 194.875 171.648438 197.476562 172.066406 199.917969 C 176.398438 202.679688 180.648438 205.667969 185.050781 208.253906 C 186.453125 207.75 185.4375 205.421875 185.777344 204.164062 C 185.753906 201.773438 185.96875 199.351562 185.640625 196.980469 C 182.320312 194.484375 178.71875 192.246094 175.28125 189.84375 C 174.324219 189.371094 173.507812 188.25 172.394531 188.285156 Z M 172.394531 188.285156 " fill-opacity="1" fill-rule="nonzero"/><g clip-path="url(#id1)"><path fill="#000000" d="M 142.601562 136.230469 L 185.441406 165.34375 L 184.886719 165.34375 L 229.621094 135.167969 L 229.621094 136 L 184.746094 107.347656 L 185.300781 107.347656 L 142.601562 137.0625 L 142.601562 136.230469 M 142.046875 137.0625 C 141.972656 137.015625 141.917969 136.957031 141.875 136.882812 C 141.835938 136.808594 141.8125 136.730469 141.8125 136.644531 C 141.8125 136.5625 141.835938 136.480469 141.875 136.40625 C 141.917969 136.335938 141.972656 136.273438 142.046875 136.230469 L 184.746094 106.515625 C 184.824219 106.449219 184.917969 106.414062 185.023438 106.414062 C 185.128906 106.414062 185.222656 106.449219 185.300781 106.515625 L 230.175781 135.167969 C 230.25 135.210938 230.304688 135.273438 230.347656 135.347656 C 230.386719 135.417969 230.410156 135.5 230.410156 135.582031 C 230.410156 135.667969 230.386719 135.746094 230.347656 135.820312 C 230.304688 135.894531 230.25 135.953125 230.175781 136 L 185.441406 166.171875 C 185.253906 166.273438 185.070312 166.273438 184.886719 166.171875 Z M 142.046875 137.0625 " fill-opacity="1" fill-rule="nonzero"/></g><path fill="#000000" d="M 142.460938 137.199219 L 142.046875 180.175781 L 141.8125 179.761719 L 186.457031 208.734375 L 185.902344 208.734375 L 231.011719 178.605469 L 230.78125 179.019531 L 229.113281 136.324219 C 229.113281 136.046875 229.304688 135.816406 229.574219 135.816406 C 229.847656 135.816406 230.085938 136.003906 230.085938 136.277344 L 231.75 178.976562 C 231.75 179.15625 231.675781 179.296875 231.519531 179.390625 L 186.410156 209.519531 C 186.226562 209.617188 186.042969 209.617188 185.855469 209.519531 L 141.210938 180.546875 C 141.070312 180.445312 140.992188 180.304688 140.980469 180.128906 L 141.398438 137.152344 C 141.398438 137.015625 141.449219 136.894531 141.546875 136.796875 C 141.648438 136.699219 141.765625 136.648438 141.90625 136.644531 C 142.054688 136.65625 142.183594 136.714844 142.289062 136.820312 C 142.394531 136.925781 142.453125 137.050781 142.460938 137.199219 Z M 142.460938 137.199219 " fill-opacity="1" fill-rule="nonzero"/><path fill="#000000" d="M 156.527344 189.417969 L 156.109375 146.535156 C 156.109375 146.355469 156.183594 146.214844 156.339844 146.121094 L 198.023438 116.082031 C 198.132812 116 198.257812 115.96875 198.390625 115.988281 C 198.527344 116.007812 198.632812 116.070312 198.71875 116.175781 C 198.855469 116.367188 198.8125 116.730469 198.625 116.871094 L 156.941406 146.90625 L 157.171875 146.492188 L 157.589844 189.375 C 157.589844 189.515625 157.539062 189.632812 157.4375 189.730469 C 157.339844 189.832031 157.222656 189.882812 157.082031 189.882812 C 156.804688 189.882812 156.527344 189.695312 156.527344 189.421875 Z M 156.527344 189.417969 " fill-opacity="1" fill-rule="nonzero"/><path fill="#000000" d="M 171.238281 198.84375 L 171.929688 158.089844 C 171.941406 157.914062 172.019531 157.773438 172.164062 157.671875 L 215.050781 126.941406 C 215.160156 126.855469 215.289062 126.828125 215.425781 126.855469 C 215.566406 126.882812 215.671875 126.957031 215.742188 127.082031 C 215.882812 127.3125 215.835938 127.636719 215.605469 127.773438 L 172.765625 158.503906 L 172.996094 158.089844 L 172.300781 198.84375 C 172.300781 198.984375 172.25 199.105469 172.152344 199.203125 C 172.050781 199.300781 171.933594 199.351562 171.792969 199.355469 C 171.515625 199.355469 171.238281 199.121094 171.238281 198.84375 Z M 171.238281 198.84375 " fill-opacity="1" fill-rule="nonzero"/><path fill="#000000" d="M 186.273438 166.636719 L 186.320312 209.058594 C 186.3125 209.195312 186.261719 209.308594 186.164062 209.402344 C 186.066406 209.496094 185.945312 209.542969 185.8125 209.542969 C 185.675781 209.542969 185.558594 209.496094 185.457031 209.402344 C 185.359375 209.308594 185.308594 209.195312 185.300781 209.058594 L 185.253906 166.636719 C 185.261719 166.5 185.3125 166.386719 185.410156 166.292969 C 185.511719 166.195312 185.628906 166.148438 185.765625 166.148438 C 185.902344 166.148438 186.019531 166.195312 186.117188 166.292969 C 186.214844 166.386719 186.269531 166.5 186.273438 166.636719 Z M 186.273438 166.636719 " fill-opacity="1" fill-rule="nonzero"/><path fill="#000000" d="M 200.246094 199.769531 C 200.25 199.914062 200.203125 200.039062 200.105469 200.144531 C 200.003906 200.246094 199.882812 200.300781 199.734375 200.300781 C 199.589844 200.300781 199.46875 200.246094 199.367188 200.144531 C 199.269531 200.039062 199.222656 199.914062 199.226562 199.769531 L 199.039062 156.46875 L 199.269531 156.886719 L 156.4375 127.773438 C 156.207031 127.636719 156.160156 127.3125 156.300781 127.082031 C 156.4375 126.851562 156.761719 126.804688 156.992188 126.941406 L 199.828125 156.054688 C 199.984375 156.148438 200.058594 156.289062 200.058594 156.472656 L 200.25 199.769531 L 199.226562 199.769531 C 199.234375 199.632812 199.285156 199.519531 199.382812 199.421875 C 199.480469 199.328125 199.597656 199.28125 199.734375 199.28125 C 199.871094 199.28125 199.988281 199.328125 200.089844 199.421875 C 200.1875 199.519531 200.238281 199.632812 200.246094 199.769531 Z M 200.246094 199.769531 " fill-opacity="1" fill-rule="nonzero"/><path fill="#000000" d="M 215.882812 187.800781 L 214.171875 145.609375 L 214.402344 146.027344 L 171.929688 117.375 C 171.699219 117.238281 171.652344 116.914062 171.792969 116.683594 C 171.929688 116.453125 172.253906 116.40625 172.488281 116.546875 L 214.957031 145.195312 C 215.113281 145.289062 215.1875 145.429688 215.1875 145.609375 L 216.898438 187.800781 C 216.898438 188.078125 216.710938 188.308594 216.4375 188.308594 C 216.113281 188.261719 215.882812 188.078125 215.882812 187.800781 Z M 215.882812 187.800781 " fill-opacity="1" fill-rule="nonzero"/><path fill="#000000" d="M 141.859375 151.386719 L 184.929688 180.824219 L 184.375 180.824219 L 228.972656 150.507812 C 229.207031 150.371094 229.53125 150.414062 229.667969 150.648438 C 229.804688 150.882812 229.761719 151.203125 229.53125 151.339844 L 184.929688 181.65625 C 184.742188 181.792969 184.515625 181.792969 184.375 181.65625 L 141.304688 152.21875 C 141.074219 152.078125 141.027344 151.757812 141.167969 151.527344 C 141.304688 151.292969 141.628906 151.25 141.859375 151.386719 Z M 141.859375 151.386719 " fill-opacity="1" fill-rule="nonzero"/><path fill="#000000" d="M 142.460938 166.730469 L 185.53125 196.164062 L 184.980469 196.164062 L 229.070312 167.144531 C 229.300781 167.007812 229.625 167.050781 229.765625 167.285156 C 229.902344 167.515625 229.859375 167.839844 229.625 167.976562 L 185.53125 196.996094 C 185.347656 197.09375 185.164062 197.09375 184.976562 196.996094 L 141.90625 167.5625 C 141.675781 167.421875 141.628906 167.097656 141.769531 166.867188 C 141.90625 166.636719 142.230469 166.589844 142.460938 166.730469 Z M 142.460938 166.730469 " fill-opacity="1" fill-rule="nonzero"/><path fill="#000000" d="M 136.539062 148.105469 C 136.355469 141.910156 136.304688 137.476562 136.261719 134.75 C 136.261719 133.917969 136.308594 133.410156 136.492188 133.089844 L 136.449219 133.132812 C 136.683594 132.535156 137.328125 131.886719 138.390625 131.148438 L 138.25 131.285156 L 138.390625 131.148438 C 138.667969 130.917969 140.980469 129.390625 145.328125 126.664062 C 145.4375 126.574219 145.5625 126.535156 145.707031 126.554688 C 145.847656 126.578125 145.957031 126.648438 146.035156 126.765625 C 146.113281 126.886719 146.132812 127.015625 146.09375 127.152344 C 146.050781 127.292969 145.96875 127.390625 145.839844 127.449219 C 141.535156 130.132812 139.269531 131.609375 138.992188 131.839844 L 139.085938 131.746094 L 138.945312 131.882812 C 138.023438 132.53125 137.511719 133.039062 137.328125 133.457031 C 137.328125 133.488281 137.3125 133.503906 137.28125 133.503906 C 137.1875 133.640625 137.1875 134.011719 137.1875 134.65625 C 137.1875 137.382812 137.28125 141.820312 137.464844 148.011719 C 137.472656 148.144531 137.429688 148.253906 137.335938 148.347656 C 137.246094 148.441406 137.132812 148.484375 137.003906 148.476562 C 136.726562 148.476562 136.539062 148.378906 136.539062 148.105469 Z M 136.539062 148.105469 " fill-opacity="1" fill-rule="nonzero"/><g clip-path="url(#id2)"><path fill="#000000" d="M 132.050781 140.667969 L 132.050781 136.785156 C 132.050781 136.65625 132.097656 136.546875 132.1875 136.457031 C 132.277344 136.367188 132.386719 136.324219 132.515625 136.324219 C 132.640625 136.332031 132.746094 136.378906 132.832031 136.46875 C 132.921875 136.554688 132.96875 136.660156 132.976562 136.785156 L 132.976562 140.664062 C 132.984375 140.792969 132.941406 140.90625 132.851562 141 C 132.757812 141.089844 132.644531 141.132812 132.515625 141.125 C 132.382812 141.132812 132.273438 141.089844 132.179688 141 C 132.089844 140.90625 132.046875 140.796875 132.050781 140.667969 Z M 132.050781 140.667969 " fill-opacity="1" fill-rule="nonzero"/></g><path fill="#000000" d="M 234.757812 156.195312 C 234.757812 156.382812 234.804688 156.65625 234.804688 157.070312 C 235.082031 160.257812 235.265625 161.96875 235.265625 162.109375 L 235.265625 162.0625 C 235.359375 163.078125 235.453125 164.421875 235.589844 166.128906 C 235.777344 168.808594 235.960938 171.996094 236.144531 175.742188 C 236.144531 176.015625 235.957031 176.203125 235.683594 176.25 C 235.410156 176.292969 235.21875 176.058594 235.171875 175.785156 C 234.988281 172.042969 234.804688 168.855469 234.617188 166.21875 C 234.480469 164.511719 234.386719 163.125 234.292969 162.152344 L 234.292969 162.019531 L 234.292969 162.113281 C 234.292969 161.976562 234.15625 160.3125 233.832031 157.125 C 233.796875 156.816406 233.785156 156.507812 233.785156 156.199219 C 233.785156 156.070312 233.832031 155.960938 233.921875 155.871094 C 234.011719 155.78125 234.121094 155.738281 234.25 155.738281 C 234.527344 155.738281 234.757812 155.925781 234.757812 156.199219 Z M 234.757812 156.195312 " fill-opacity="1" fill-rule="nonzero"/><path fill="#000000" d="M 239.800781 164.878906 L 239.800781 165.296875 C 239.800781 166.082031 239.847656 166.496094 239.847656 166.589844 C 239.847656 167.605469 239.894531 168.484375 239.894531 169.269531 L 239.894531 173.382812 C 239.894531 173.511719 239.847656 173.621094 239.757812 173.710938 C 239.667969 173.800781 239.558594 173.84375 239.429688 173.847656 C 239.304688 173.835938 239.199219 173.789062 239.113281 173.699219 C 239.023438 173.613281 238.976562 173.507812 238.96875 173.382812 L 238.96875 169.316406 C 238.96875 168.53125 238.96875 167.652344 238.921875 166.683594 C 238.921875 166.589844 238.921875 166.175781 238.875 165.390625 L 238.875 164.972656 C 238.867188 164.84375 238.910156 164.730469 239.003906 164.636719 C 239.09375 164.546875 239.207031 164.503906 239.335938 164.511719 C 239.613281 164.511719 239.800781 164.648438 239.800781 164.878906 Z M 239.800781 164.878906 " fill-opacity="1" fill-rule="nonzero"/><g clip-path="url(#id3)"><path fill="#000000" d="M 242.945312 176.109375 L 242.945312 176.894531 L 243.039062 177.957031 C 243.042969 178.082031 243.003906 178.191406 242.925781 178.289062 C 242.847656 178.386719 242.746094 178.445312 242.625 178.464844 C 242.390625 178.511719 242.160156 178.277344 242.113281 178.050781 L 242.019531 176.988281 L 242.019531 176.109375 C 242.019531 175.980469 242.066406 175.875 242.15625 175.78125 C 242.246094 175.691406 242.355469 175.648438 242.484375 175.648438 C 242.605469 175.65625 242.714844 175.703125 242.800781 175.792969 C 242.890625 175.878906 242.9375 175.984375 242.945312 176.109375 Z M 242.945312 176.109375 " fill-opacity="1" fill-rule="nonzero"/></g><path fill="#000000" d="M 167.628906 205.453125 C 168.460938 205.960938 173.273438 209.519531 182.0625 216.175781 C 182.164062 216.25 182.226562 216.351562 182.242188 216.480469 C 182.261719 216.605469 182.234375 216.71875 182.15625 216.820312 C 182.078125 216.925781 181.976562 216.984375 181.851562 217 C 181.722656 217.019531 181.609375 216.992188 181.507812 216.914062 C 172.71875 210.304688 167.90625 206.746094 167.121094 206.238281 C 167.007812 206.171875 166.9375 206.074219 166.910156 205.945312 C 166.882812 205.816406 166.90625 205.699219 166.980469 205.59375 C 167.050781 205.480469 167.148438 205.414062 167.277344 205.386719 C 167.402344 205.359375 167.519531 205.382812 167.628906 205.453125 Z M 167.628906 205.453125 " fill-opacity="1" fill-rule="nonzero"/><path fill="#000000" d="M 186.964844 216.359375 C 190.203125 213.492188 195.109375 210.167969 201.722656 206.285156 C 201.839844 206.222656 201.960938 206.207031 202.085938 206.242188 C 202.210938 206.28125 202.308594 206.355469 202.371094 206.46875 C 202.433594 206.585938 202.449219 206.707031 202.414062 206.832031 C 202.378906 206.957031 202.300781 207.054688 202.1875 207.117188 C 195.617188 210.953125 190.757812 214.28125 187.566406 217.097656 C 187.472656 217.183594 187.363281 217.222656 187.234375 217.214844 C 187.105469 217.207031 187 217.152344 186.921875 217.050781 C 186.847656 216.945312 186.8125 216.828125 186.820312 216.699219 C 186.832031 216.566406 186.878906 216.457031 186.964844 216.359375 Z M 186.964844 216.359375 " fill-opacity="1" fill-rule="nonzero"/><path fill="#000000" d="M 168.878906 212.292969 C 170.40625 213.355469 172.71875 215.15625 175.816406 217.652344 C 176.007812 217.839844 176.046875 218.117188 175.910156 218.300781 C 175.832031 218.394531 175.730469 218.449219 175.605469 218.46875 C 175.484375 218.484375 175.367188 218.460938 175.265625 218.394531 C 172.164062 215.945312 169.851562 214.144531 168.371094 213.078125 C 168.253906 213.011719 168.1875 212.910156 168.167969 212.777344 C 168.148438 212.644531 168.183594 212.53125 168.277344 212.433594 C 168.464844 212.242188 168.691406 212.109375 168.878906 212.292969 Z M 168.878906 212.292969 " fill-opacity="1" fill-rule="nonzero"/><g clip-path="url(#id4)"><path fill="#000000" d="M 171.328125 219.085938 C 171.605469 219.363281 172.070312 219.734375 172.625 220.195312 C 172.8125 220.382812 172.855469 220.65625 172.671875 220.839844 C 172.488281 221.023438 172.207031 221.070312 172.023438 220.886719 C 171.46875 220.425781 171.007812 220.054688 170.726562 219.777344 C 170.539062 219.589844 170.496094 219.316406 170.683594 219.132812 C 170.867188 218.945312 171.144531 218.902344 171.328125 219.085938 Z M 171.328125 219.085938 " fill-opacity="1" fill-rule="nonzero"/></g><path fill="#2ec4b6" d="M 213.265625 147.140625 C 208.9375 150.257812 204.066406 152.886719 200.082031 156.3125 C 200.269531 160.769531 199.726562 165.402344 200.328125 169.757812 C 205.214844 167.371094 210.160156 163.601562 214.578125 160.257812 C 214.738281 155.914062 215.441406 151.226562 213.8125 147.125 Z M 213.265625 147.140625 " fill-opacity="1" fill-rule="nonzero"/><g fill="#2b2d42" fill-opacity="1"><g transform="translate(83.343749, 259.144202)"><g><path d="M 2.953125 -27.140625 L 13.609375 -27.140625 C 16.515625 -27.140625 18.648438 -26.5625 20.015625 -25.40625 C 21.390625 -24.25 22.078125 -22.378906 22.078125 -19.796875 C 22.078125 -18.410156 21.847656 -17.265625 21.390625 -16.359375 C 20.941406 -15.460938 20.171875 -14.664062 19.078125 -13.96875 C 20.273438 -13.488281 21.160156 -12.753906 21.734375 -11.765625 C 22.304688 -10.785156 22.59375 -9.5 22.59375 -7.90625 C 22.59375 -5.238281 21.832031 -3.253906 20.3125 -1.953125 C 18.800781 -0.648438 16.617188 0 13.765625 0 L 2.953125 0 Z M 13.375 -15.96875 C 15.445312 -15.96875 16.484375 -17.046875 16.484375 -19.203125 C 16.484375 -21.359375 15.429688 -22.4375 13.328125 -22.4375 L 8.46875 -22.4375 L 8.46875 -15.96875 Z M 13.5 -4.703125 C 14.695312 -4.703125 15.578125 -4.945312 16.140625 -5.4375 C 16.710938 -5.9375 17 -6.769531 17 -7.9375 C 17 -9.113281 16.71875 -9.972656 16.15625 -10.515625 C 15.601562 -11.066406 14.71875 -11.34375 13.5 -11.34375 L 8.46875 -11.34375 L 8.46875 -4.703125 Z M 13.5 -4.703125 "/></g></g></g><g fill="#2b2d42" fill-opacity="1"><g transform="translate(107.651456, 259.144202)"><g><path d="M 8.9375 0.484375 C 7.238281 0.484375 5.898438 0.140625 4.921875 -0.546875 C 3.953125 -1.242188 3.269531 -2.3125 2.875 -3.75 C 2.476562 -5.1875 2.28125 -7.101562 2.28125 -9.5 L 2.28125 -19.953125 L 7.625 -19.953125 L 7.625 -9.421875 C 7.625 -7.984375 7.691406 -6.910156 7.828125 -6.203125 C 7.960938 -5.503906 8.234375 -5.015625 8.640625 -4.734375 C 9.054688 -4.453125 9.691406 -4.3125 10.546875 -4.3125 C 11.148438 -4.3125 11.695312 -4.363281 12.1875 -4.46875 C 12.6875 -4.570312 13.375 -4.757812 14.25 -5.03125 L 14.25 -19.953125 L 19.609375 -19.953125 L 19.609375 0 L 14.296875 0 L 14.296875 -1.125 C 13.171875 -0.507812 12.21875 -0.0859375 11.4375 0.140625 C 10.65625 0.367188 9.820312 0.484375 8.9375 0.484375 Z M 8.9375 0.484375 "/></g></g></g><g fill="#2b2d42" fill-opacity="1"><g transform="translate(129.723972, 259.144202)"><g><path d="M 2.46875 0 Z M 2.46875 -19.953125 L 7.828125 -19.953125 L 7.828125 0 L 2.46875 0 Z M 2.671875 -27.578125 L 8.03125 -27.578125 L 8.03125 -22.203125 L 2.671875 -22.203125 Z M 2.671875 -27.578125 "/></g></g></g><g fill="#2b2d42" fill-opacity="1"><g transform="translate(140.021823, 259.144202)"><g><path d="M 2.71875 -27.9375 L 8.0625 -27.9375 L 8.0625 0 L 2.71875 0 Z M 2.71875 -27.9375 "/></g></g></g><g fill="#2b2d42" fill-opacity="1"><g transform="translate(150.798643, 259.144202)"><g><path d="M 9.015625 0.484375 C 6.359375 0.484375 4.441406 -0.359375 3.265625 -2.046875 C 2.097656 -3.742188 1.515625 -6.296875 1.515625 -9.703125 C 1.515625 -13.429688 2.171875 -16.148438 3.484375 -17.859375 C 4.804688 -19.578125 6.835938 -20.4375 9.578125 -20.4375 C 10.566406 -20.4375 12.070312 -20.25 14.09375 -19.875 L 14.09375 -27.9375 L 19.4375 -27.9375 L 19.4375 0 L 14.125 0 L 14.125 -0.84375 C 13.039062 -0.332031 12.113281 0.015625 11.34375 0.203125 C 10.570312 0.390625 9.796875 0.484375 9.015625 0.484375 Z M 10.265625 -4.3125 C 11.222656 -4.3125 12.3125 -4.472656 13.53125 -4.796875 L 14.09375 -4.90625 L 14.09375 -15.40625 C 12.675781 -15.675781 11.492188 -15.8125 10.546875 -15.8125 C 9.265625 -15.8125 8.34375 -15.359375 7.78125 -14.453125 C 7.226562 -13.546875 6.953125 -12.003906 6.953125 -9.828125 C 6.953125 -7.828125 7.203125 -6.40625 7.703125 -5.5625 C 8.210938 -4.726562 9.066406 -4.3125 10.265625 -4.3125 Z M 10.265625 -4.3125 "/></g></g></g><g fill="#2b2d42" fill-opacity="1"><g transform="translate(172.711503, 259.144202)"><g/></g></g><g fill="#2b2d42" fill-opacity="1"><g transform="translate(181.492611, 259.144202)"><g><path d="M 2.953125 -27.140625 L 13.609375 -27.140625 C 16.515625 -27.140625 18.648438 -26.5625 20.015625 -25.40625 C 21.390625 -24.25 22.078125 -22.378906 22.078125 -19.796875 C 22.078125 -18.410156 21.847656 -17.265625 21.390625 -16.359375 C 20.941406 -15.460938 20.171875 -14.664062 19.078125 -13.96875 C 20.273438 -13.488281 21.160156 -12.753906 21.734375 -11.765625 C 22.304688 -10.785156 22.59375 -9.5 22.59375 -7.90625 C 22.59375 -5.238281 21.832031 -3.253906 20.3125 -1.953125 C 18.800781 -0.648438 16.617188 0 13.765625 0 L 2.953125 0 Z M 13.375 -15.96875 C 15.445312 -15.96875 16.484375 -17.046875 16.484375 -19.203125 C 16.484375 -21.359375 15.429688 -22.4375 13.328125 -22.4375 L 8.46875 -22.4375 L 8.46875 -15.96875 Z M 13.5 -4.703125 C 14.695312 -4.703125 15.578125 -4.945312 16.140625 -5.4375 C 16.710938 -5.9375 17 -6.769531 17 -7.9375 C 17 -9.113281 16.71875 -9.972656 16.15625 -10.515625 C 15.601562 -11.066406 14.71875 -11.34375 13.5 -11.34375 L 8.46875 -11.34375 L 8.46875 -4.703125 Z M 13.5 -4.703125 "/></g></g></g><g fill="#2b2d42" fill-opacity="1"><g transform="translate(205.800318, 259.144202)"><g><path d="M 8.9375 0.484375 C 7.238281 0.484375 5.898438 0.140625 4.921875 -0.546875 C 3.953125 -1.242188 3.269531 -2.3125 2.875 -3.75 C 2.476562 -5.1875 2.28125 -7.101562 2.28125 -9.5 L 2.28125 -19.953125 L 7.625 -19.953125 L 7.625 -9.421875 C 7.625 -7.984375 7.691406 -6.910156 7.828125 -6.203125 C 7.960938 -5.503906 8.234375 -5.015625 8.640625 -4.734375 C 9.054688 -4.453125 9.691406 -4.3125 10.546875 -4.3125 C 11.148438 -4.3125 11.695312 -4.363281 12.1875 -4.46875 C 12.6875 -4.570312 13.375 -4.757812 14.25 -5.03125 L 14.25 -19.953125 L 19.609375 -19.953125 L 19.609375 0 L 14.296875 0 L 14.296875 -1.125 C 13.171875 -0.507812 12.21875 -0.0859375 11.4375 0.140625 C 10.65625 0.367188 9.820312 0.484375 8.9375 0.484375 Z M 8.9375 0.484375 "/></g></g></g><g fill="#2b2d42" fill-opacity="1"><g transform="translate(227.872834, 259.144202)"><g><path d="M 9.015625 0.484375 C 6.359375 0.484375 4.441406 -0.359375 3.265625 -2.046875 C 2.097656 -3.742188 1.515625 -6.296875 1.515625 -9.703125 C 1.515625 -13.429688 2.171875 -16.148438 3.484375 -17.859375 C 4.804688 -19.578125 6.835938 -20.4375 9.578125 -20.4375 C 10.566406 -20.4375 12.070312 -20.25 14.09375 -19.875 L 14.09375 -27.9375 L 19.4375 -27.9375 L 19.4375 0 L 14.125 0 L 14.125 -0.84375 C 13.039062 -0.332031 12.113281 0.015625 11.34375 0.203125 C 10.570312 0.390625 9.796875 0.484375 9.015625 0.484375 Z M 10.265625 -4.3125 C 11.222656 -4.3125 12.3125 -4.472656 13.53125 -4.796875 L 14.09375 -4.90625 L 14.09375 -15.40625 C 12.675781 -15.675781 11.492188 -15.8125 10.546875 -15.8125 C 9.265625 -15.8125 8.34375 -15.359375 7.78125 -14.453125 C 7.226562 -13.546875 6.953125 -12.003906 6.953125 -9.828125 C 6.953125 -7.828125 7.203125 -6.40625 7.703125 -5.5625 C 8.210938 -4.726562 9.066406 -4.3125 10.265625 -4.3125 Z M 10.265625 -4.3125 "/></g></g></g><g fill="#2b2d42" fill-opacity="1"><g transform="translate(249.785693, 259.144202)"><g><path d="M 9.015625 0.484375 C 6.359375 0.484375 4.441406 -0.359375 3.265625 -2.046875 C 2.097656 -3.742188 1.515625 -6.296875 1.515625 -9.703125 C 1.515625 -13.429688 2.171875 -16.148438 3.484375 -17.859375 C 4.804688 -19.578125 6.835938 -20.4375 9.578125 -20.4375 C 10.566406 -20.4375 12.070312 -20.25 14.09375 -19.875 L 14.09375 -27.9375 L 19.4375 -27.9375 L 19.4375 0 L 14.125 0 L 14.125 -0.84375 C 13.039062 -0.332031 12.113281 0.015625 11.34375 0.203125 C 10.570312 0.390625 9.796875 0.484375 9.015625 0.484375 Z M 10.265625 -4.3125 C 11.222656 -4.3125 12.3125 -4.472656 13.53125 -4.796875 L 14.09375 -4.90625 L 14.09375 -15.40625 C 12.675781 -15.675781 11.492188 -15.8125 10.546875 -15.8125 C 9.265625 -15.8125 8.34375 -15.359375 7.78125 -14.453125 C 7.226562 -13.546875 6.953125 -12.003906 6.953125 -9.828125 C 6.953125 -7.828125 7.203125 -6.40625 7.703125 -5.5625 C 8.210938 -4.726562 9.066406 -4.3125 10.265625 -4.3125 Z M 10.265625 -4.3125 "/></g></g></g><g fill="#2b2d42" fill-opacity="1"><g transform="translate(271.698553, 259.144202)"><g><path d="M 9.296875 0 L 5.546875 0 L 0.640625 -19.953125 L 5.90625 -19.953125 L 9.546875 -4.546875 L 10.453125 -4.546875 L 14.09375 -19.953125 L 19.359375 -19.953125 L 12.328125 8.390625 L 7.109375 8.390625 Z M 9.296875 0 "/></g></g></g></svg>